<mxfile host="Electron" modified="2024-05-16T08:41:30.848Z" agent="Mozilla/5.0 (Windows NT 10.0; Win64; x64) AppleWebKit/537.36 (KHTML, like Gecko) draw.io/21.6.1 Chrome/112.0.5615.204 Electron/24.6.1 Safari/537.36" etag="d8xaHFFgktYN_fUpu-s3" version="21.6.1" type="device">
  <diagram name="PÃ¡gina-1" id="Dn5xdN_BKeLc9ymAYypo">
    <mxGraphModel dx="1098" dy="1467" grid="1" gridSize="10" guides="1" tooltips="1" connect="1" arrows="1" fold="1" page="1" pageScale="1" pageWidth="1169" pageHeight="827" math="0" shadow="0">
      <root>
        <mxCell id="0" />
        <mxCell id="1" parent="0" />
        <mxCell id="diyvk7pH9POSvBMp7duy-6" value="" style="shape=umlLifeline;perimeter=lifelinePerimeter;whiteSpace=wrap;html=1;container=1;dropTarget=0;collapsible=0;recursiveResize=0;outlineConnect=0;portConstraint=eastwest;newEdgeStyle={&quot;edgeStyle&quot;:&quot;elbowEdgeStyle&quot;,&quot;elbow&quot;:&quot;vertical&quot;,&quot;curved&quot;:0,&quot;rounded&quot;:0};participant=umlActor;" vertex="1" parent="1">
          <mxGeometry x="435" y="210" width="20" height="300" as="geometry" />
        </mxCell>
        <mxCell id="diyvk7pH9POSvBMp7duy-7" value=":centroEstudios" style="shape=umlLifeline;perimeter=lifelinePerimeter;whiteSpace=wrap;html=1;container=1;dropTarget=0;collapsible=0;recursiveResize=0;outlineConnect=0;portConstraint=eastwest;newEdgeStyle={&quot;edgeStyle&quot;:&quot;elbowEdgeStyle&quot;,&quot;elbow&quot;:&quot;vertical&quot;,&quot;curved&quot;:0,&quot;rounded&quot;:0};" vertex="1" parent="1">
          <mxGeometry x="585" y="210" width="100" height="300" as="geometry" />
        </mxCell>
        <mxCell id="diyvk7pH9POSvBMp7duy-9" value="" style="html=1;points=[];perimeter=orthogonalPerimeter;outlineConnect=0;targetShapes=umlLifeline;portConstraint=eastwest;newEdgeStyle={&quot;edgeStyle&quot;:&quot;elbowEdgeStyle&quot;,&quot;elbow&quot;:&quot;vertical&quot;,&quot;curved&quot;:0,&quot;rounded&quot;:0};" vertex="1" parent="diyvk7pH9POSvBMp7duy-7">
          <mxGeometry x="45" y="190" width="10" height="80" as="geometry" />
        </mxCell>
        <mxCell id="diyvk7pH9POSvBMp7duy-10" value="solicitarExamen()" style="html=1;verticalAlign=bottom;endArrow=block;edgeStyle=elbowEdgeStyle;elbow=vertical;curved=0;rounded=0;" edge="1" target="diyvk7pH9POSvBMp7duy-9" parent="diyvk7pH9POSvBMp7duy-7">
          <mxGeometry relative="1" as="geometry">
            <mxPoint x="-135" y="190" as="sourcePoint" />
          </mxGeometry>
        </mxCell>
        <mxCell id="diyvk7pH9POSvBMp7duy-11" value="generarExamen" style="html=1;verticalAlign=bottom;endArrow=open;dashed=1;endSize=8;edgeStyle=elbowEdgeStyle;elbow=vertical;curved=0;rounded=0;" edge="1" source="diyvk7pH9POSvBMp7duy-9" parent="diyvk7pH9POSvBMp7duy-7">
          <mxGeometry relative="1" as="geometry">
            <mxPoint x="-135" y="265" as="targetPoint" />
          </mxGeometry>
        </mxCell>
        <mxCell id="diyvk7pH9POSvBMp7duy-12" value="" style="html=1;points=[];perimeter=orthogonalPerimeter;outlineConnect=0;targetShapes=umlLifeline;portConstraint=eastwest;newEdgeStyle={&quot;edgeStyle&quot;:&quot;elbowEdgeStyle&quot;,&quot;elbow&quot;:&quot;vertical&quot;,&quot;curved&quot;:0,&quot;rounded&quot;:0};" vertex="1" parent="diyvk7pH9POSvBMp7duy-7">
          <mxGeometry x="-145" y="190" width="10" height="80" as="geometry" />
        </mxCell>
        <mxCell id="diyvk7pH9POSvBMp7duy-2" value="" style="html=1;points=[];perimeter=orthogonalPerimeter;outlineConnect=0;targetShapes=umlLifeline;portConstraint=eastwest;newEdgeStyle={&quot;edgeStyle&quot;:&quot;elbowEdgeStyle&quot;,&quot;elbow&quot;:&quot;vertical&quot;,&quot;curved&quot;:0,&quot;rounded&quot;:0};" vertex="1" parent="1">
          <mxGeometry x="630" y="290" width="10" height="80" as="geometry" />
        </mxCell>
        <mxCell id="diyvk7pH9POSvBMp7duy-3" value="solicitarExamen()" style="html=1;verticalAlign=bottom;endArrow=block;edgeStyle=elbowEdgeStyle;elbow=vertical;curved=0;rounded=0;" edge="1" target="diyvk7pH9POSvBMp7duy-2" parent="1">
          <mxGeometry relative="1" as="geometry">
            <mxPoint x="450" y="290" as="sourcePoint" />
          </mxGeometry>
        </mxCell>
        <mxCell id="diyvk7pH9POSvBMp7duy-4" value="generarExamen" style="html=1;verticalAlign=bottom;endArrow=open;dashed=1;endSize=8;edgeStyle=elbowEdgeStyle;elbow=vertical;curved=0;rounded=0;" edge="1" source="diyvk7pH9POSvBMp7duy-2" parent="1">
          <mxGeometry relative="1" as="geometry">
            <mxPoint x="450" y="365" as="targetPoint" />
          </mxGeometry>
        </mxCell>
        <mxCell id="diyvk7pH9POSvBMp7duy-5" value="" style="html=1;points=[];perimeter=orthogonalPerimeter;outlineConnect=0;targetShapes=umlLifeline;portConstraint=eastwest;newEdgeStyle={&quot;edgeStyle&quot;:&quot;elbowEdgeStyle&quot;,&quot;elbow&quot;:&quot;vertical&quot;,&quot;curved&quot;:0,&quot;rounded&quot;:0};" vertex="1" parent="1">
          <mxGeometry x="440" y="290" width="10" height="80" as="geometry" />
        </mxCell>
        <mxCell id="diyvk7pH9POSvBMp7duy-8" value="" style="shape=image;verticalLabelPosition=bottom;labelBackgroundColor=default;verticalAlign=top;aspect=fixed;imageAspect=0;image=data:image/png,iVBORw0KGgoAAAANSUhEUgAAAo8AAAFJCAYAAAD6ycdPAAAAAXNSR0IArs4c6QAAAARnQU1BAACxjwv8YQUAAAAJcEhZcwAADsMAAA7DAcdvqGQAAKwISURBVHhe7L0LXFVV+v//4YiiXH54ARUvESJfFcnQJESiDAn9GWo25jcv8U3HkUaSaXwR/Rp/jL9irBH9W18cNJu8RGplFirotxSRZFARU0YFdQARUxEBlQFRFI//tfblnH0O57IPF0V93r1Onr3O3muv9axnPevZ61lrY3ePAYIgCIIgCIJQgUb6lyAIgiAIgiCsQs4jQRAEQRAEoRpyHgmCIAiCIAjVkPNIEARBEARBqIacR4IgCIIgCEI15DwSBEEQBEEQqiHnkSAIgiAIglANOY8EQRAEQRCEash5JAiCIAiCIFRDziNBEARBEAShGnIeCYIgCIIgCNWQ80gQBEEQBEGohpxHgiAIgiAIQjXkPD4y3EL+xrUIfHMtkgtvSWlWuHsOyVFJ7JqtSK/USolEm6Atx6b3/obAud8j/UqjlEgQBEEQDx8qncerSF+yyjbHhCAeCPXMif6S6ernSMirldIeNI0ozzqANRX2CJ4xBhN62kvpBEEQBPHwQTOPxCPGXdTWNEjf2wn1v+KHXRXoHTYOCaE9qNMRBEEQDzU0jhGPGC4IiZ6H3A3zEB/gIqU9YBy9EL18PrbM8oKTlEQQBEEQDyt29xjSdwvwsPU3SChyQGTcTET7dpbSRbSV57Drp0NIzLgCYc7HviciZ4zC1DFPopfgnjaiovAXfL4uD+lVWsBtAOIXjEWEZxf+owK+bm8TojJcEf9BEJC+Wwo9uiAicjwWhnqwwfcOSrZvwYzUavESAfb71DGYN8FLvJ/2OvJ3ZeOjraUoY/6xZ0AwPp7tD29HO/YjL8sJbE3NRUrRbeFqBx9fxE0ZiQm+XQVvWltZii1bsvBJk3uboL4c6et/FMvJ6z13FIYV70VstifWrAqDP84hef4OpMBXPO7AruFrDY3TjGVkXKcm3ERJ5l68n3KW1bETAsNGIrAmH0l5doo2spKnXI6G3oiJHoCz3x4SznPw8cOHs4IwRm4fA3ky3LzwxzkhmCbJyxiL8rOWV/1lZP2QhT/LuiTjwGX1HPA11w8o6ijrjJwG6bgBgZGvIynUUTp20dfx+pNY/unLCHHm+iBjWUcN68R1KgB/mvYM/N3t9XJ8YgSWB13HStYmlwPCsfP3rtjx/vdIqlCsJzWor17fF8X5o35ftpg/06PZ74zHPD9JJtpqpCd+h4Rid8R/NBkRFPYmCIIgHiAm3RKbqC/F6qXpSFAO9o1XkJKSjoVp5eDDprbsMBYm5koODKPqLBI2nkaFeGSCS0hY/L1izVot0lN2Y0NhvXRsDPt96x58/gs/nzmXaTsRJTsnrARleQfx34euse/3cKNwPxYkZuscR05DUSESEnfi67I77PRyfL18p+QkcPi9c7DP1IYSPqgnbdeXk9f7sx2IzbghHqtGLpdCRkKddmLB5lI0za0R5Zm7MFtwHDm3kZtxgDmOSvnYkudlJCUf0J3XUHQS7608iPx6/lxRj/zN2xXyZFSV4pPE7Vhtqj0sys9aXrXIXr8D7xk7jq2Coo6Nt1Bz0/CZyaKOCjqurBPXqVxELd0vyUii6ChipTZpuH6T1dYEvL4r9mKXwaaZS1iSuEufP9Oj9Z8qzrlXi7JSpq+N11FWRZttCIIgiAdLC51H5qjtOYAUNuA6+DyLjasWIHfDfOyI9oEnG2CLdxXg+F021N6oZ0O3Bp6jwrBj3QJkfhCCiK7KWR9j+MxOINYsm4/cdTMRP7gTS6vBD0evMLepI7wnz2T3iZE+87Etsi8ccAtZZ6rZ73dRW8s39bhgcvQbOLjhd9gc6QV3nq32MrZ9WcgG904InPIbZPLr172B5aN4eLMa67IvovFeA65fZw6Emw+W8/uveg3xAaaDjdpfz+Dr02xQt++NmMW/Y2Xh9xrA6m4r17Av9TQrlysi4+aK9Vo1EZFuQFlWAY7WGU0OayuR+VM5c7DkekgydVM2py158tnB1wR5HEwMQTCf2GJOTs455sJVnsG6jBomDz+sEdqX3SvOj9WxBt/uO8/cPSMsyc9aXnercfw4azs+y7iWt+0sxPvwwvRB/F9CpRna5uPg8zRW8zJtmIoId0PVN6+jWlQc+oXpOOAZNlHUmQ1zsSbMlcmoGGkFdWIGAqw9wiew69k5i4ajl8YDM5e+zc7n1/DPbCwP6GzSCdSVTWgjVrbGahwruyn+aOcCTy/WB+y7wtONZh0JgiCIB0sLnUfZUeuMl8KHwkcIC9uj14gheMGBfW24jgtXtbB/0huvcqflUAYmzdmAFfldMGP20+jFszCJBr2H+IghQU13vDC2H3MOgbqya8zF477TOaRv/AbPv8lfM7MKr6RcVMxUOcBnhBdzSGqxPfkrBMVm4JDLcCwM7a53bOz74bWxfcQwqqYbgp7vD2f2Vci/Q08Eh3DHoAix736GaetL4RoxpomzwREdDnbH4cMwyYuHN7vA+wU/se62cPffKDvPnYkapCR+werE6jU/TXDKTc2SNa2HHZw8h2Civ2IZgE15umD4U70EeWh6DsSU4Twc3IAzl+vRWFmNAn5K1UlEzV/J8lmJ0MST5mfXLMjPal4demDYMHbvhkJE/Za37UYkFLE6uHVHPydLDxtqsId/0FMYwXXKBOZ19DbKLzGHl882ZqQhVNC5LxDFnWD2qFJZe0e4XsQN4S8NUCwzuIcbZaexKXk9u4Zftx6xeabeVqAom6MHgoV2VOSt6YGI//MWcr/4DYWsCYIgiAdOC51HlfANAx9OxfLIEYhwu4H01N2Y8ed9hiE/tWirsWvtj4ZhcgOYI+X7ItZ/MA7xU5gTWVWKpOStmL3RVPjXFI7wnzUNm6NDEBPghLK8I4hdvAXJZkPmKrl7C7XGTqAa7DvDtUtLHScjWilPh65dmLSMaZ78xLw6wMXV0PPm6y+XLgiCv/BgInMXV28onbZWoFk6ag93l47S96Zor+QjPmE3knThboIgCIJ4+Gmh88gGexdx08Ke3QUoEgbaRlQcPYWfuWfXqw+G9LBDbV4WPsq8if8Y8xziE6eLYeiqchRUmlu/pcXlU2Uo4flpr+LnvReYo6jBQL/ecK+vxLHi28yrkEObcthaphbZG3cj7UYvTJg8Ed8IYVgtyk6U4/I9B3TtyqrceAHf7b0kOpPaazi4/1fUyfnXnUHyZ8dR++RTmBn9hpR3LQ4U1bBSGaJxckRv9m/DsQL8LKxPu4mSn0+KdTemsRrHz/MwJDsn7yzO3BWTBeykcilDzPLniwijjR0M+XxWj9TDV1m5+AzXKaTlS2FOjk151uLYiQpBHtorxUg9xmfHXBHo7aKroz7UrM9nf/RgNNnPbEF+sJZX3XmkZdXAISAcGXL6olD9xh0dt3HiTBUrL693CXL4WtUWcc+Cjt6TdFyjCFvLH8s7urVV1fgnUwtdfXRLMGyEr63962f0gnGCIAiiXWDjbmujgYs5cKv/Xw9sjM9GTpMxrROCI1/D8tDuuJG3Ey8nnzWcKbQfYGLHq7z71NQcYQ/EfDANM/tXYZPxDlYJ57BJ+GlWDxxM/rpJeJAP4DujB6Iuczv+0yDMLWHfV9zJ6liMhHd2I92gPp0REc0cCmNHgf/VEDNlEXcH853UzJk1UR4B3Tl8A4yZcvmEYAdfPycdipjacS7jJO06treep263tZSupNdIbP54NLwh7fTlazsNsJd2M3eXjiXqTpuX3zO3Lec1psGEPJU7mzswJ8+ELgnI9Ta321o+NiqvAHcezetocH0+Yv9kSsf7IH7Zq4jofl6So3QsLXHQlh3AG4uPoFg4UmKurLxsch9QpOnaSb6OO7MEQRAE8WAQRzmrdIRrV9NrrTQ9/ZEQH44YpWPFX0cS9zpzHPkLke3gMnQkPgzrqZsdFEKR8WObzqjpsMfIsCD8Uc5TyO9lTPfsyG7YG6/MfxGRPtIMjvB6nJGI0E09OmNERLD+d+E1NmOxfvYguLB8PUInYH00O1+3uUTanPOx9AoUZ0/MmOuHQLm6PP+3JmGhqRkmjQemx47HbPlevJwLQzDDIPLqguBpofpzpPyWhyk34ZgqlyU6wnviy1gdLstU3KjxQ6yvsHZTxIY8fYKwJvZpqc6SPGKfhTe/jK+3i3kFy/kSAP6zNSzJz2penfGEl/HmJHFnc8yWYtRyXXrmOXyqrDdr2y+jhyjq3Rws66hJHVeBxnM4PnxLLwue51+meNpeVtowQxAEQbQjVM483i9MzLo8bJh8hyNhHf3sH4RZYjEkrpu9k2dCVT7uEARBEATRNtBQTLQ7GvJ2I0zYnZyEICHsq4HnUx7oTdpKEARBEA8cGo6JdoIdXALGNg2zu3kh5s0IrJxBf9qPIAiCINoD7SxsTRAEQRAEQbRnaOaRIAiCIAiCUA05jwRBEARBEIRqyHkkCIIgCIIgVEPOI0EQBEEQBKEach4JgiAIgiAI1ZDzSBAEQRAEQaiGnEeCIAiCIAhCNeQ8EgRBEARBEKoh59Ea/G9VR/E/lbcV6ZVaKdEGWnr9Qw//e+VrWf1XISbzqpRGEARBEMTDCjmPqEV28ufC31E2/HyOhLxa6Ryi9ahnzuSXKuVry7kEQRAEQdwPyHnEHdRcb5S+E23PXdTWNEjfrWHiXG05Nr33N+ZQPq4zuQRBEATxYCHnUYcTIuPmIXdDjPSZh/gAF+k3ovVwQUg0l7Ma+Zo4914Drl8np5EgCIIgHhR29xjS9/aD9jryd2Xjo62lKGOHDj5P49N5wRjhbi/+3qpcRfqSb5BQ5MCcx5mI9u0spUvwNYvzdyCloQ/il72KCHdDf1tbdgBvLD6CYumY++OeAQH407Rn4M/La3x99/PiMXyxZlUY/DuwS+RzdGl8neAmRGW4YlGcP+r3ZeMTHra174nZ74zDTJdLSNmYjZSi24DbAMQvGIsIzy5oLMzAuMR/Yeis8Zhzq0CSXycEhodh0esD0UsuOpdv1hGs21yIXGHSlZ0TFog5454Sy2yMQXvw+gXj49n+8Ha0Yz82oqLwBLam5orlYTj4+CJuykhM8O3Kzpbr0oDAyNeRFOpodNxduEZbWYotW7LEejKnMWLqGMyb4IHyzYpznypDzLvZyBWukHDgMnsBLulbMCO1WkrkyHl46eutQy4TFG3eNE21PA3g8vgFn6/LQ3oVd3KV5biH2rydeDn5LDA4BN/GDYeHhi+b+BqxeU6I+WAapiNPnT49EYQ1U7RIk+4j9pERcC3Jw39/cZK1q3E7GcvYlnzbqu8RBEEQDyPtcOaxEeVZexEjOY6chqJ/4vdL9yO/vi393BtISVSsfVxyDBXSL7ahRVleLmK2FKPlq/QuYUniLmmwZzRewfrlXyFs8V6do4aqs0hYdQwlusm4RuRuTEeUTn63kbs7A0uzqlnJOPXI37wdUSmy48hh52RkI2r5YUU+MndQkrZTkR+v30H896Fr7Ps93CjcjwWJkiMr0VBUiITEnfi67I6UYoX6UqxeulNfTya59K0HkPGryutNwvPYg89/aWkrWJOnElkeuZLjyOHl2IkFm0uZhtnB5ZlnEMW8zobTx/HD6Xr28HECn+XdgkPAM5jk2VG6RokZfSo6iCjFfYQ+8u56zPiMO448hV+Xgz/vuSyWs4mMxXyjjPuViXzfWXsC5U0rSxAEQTymtD/nUVuJzJ/K0WRVXFUx0grqpIP7wL9vok7FgKnxHI1NulB3DA4mhiDYng26xy+g5K50UgvgMz+rl81H7qqJiHTjzcVnjEKwedUC3b1QcQmnqhWF5TOUsZE4uGEu1oS5soTbOHKqkjkvTLxl+ViWUcPO6Y2Yxb8Ty7wsDJN53hWn8OPpW0IWeu6itpanuWBy9Bssz99hc6QX3PlP2svY9mWhOBs35TfI5DJY9waWj+Ih5mqsy77IXC9rMOd0zwGkCLNcz2Ijq5eYh7P0uwL34UhaOwmRDvyAz+S+jdw1fKa2I7wnz9S1Qe6G+dgW2RcOuIWsM9UqymAFC/I05Br2pZ5m8nBFZNxcsSxCuwFlWQU4WsecNE1vvPJfvvBEDVLW/Q+WbDyOYvu+iHttIJOwLfrEZ0AnYMe6BciM82P5cVwQEfkaawe5/loUn7yMSvZvxaFfmIwBz7CJYjvJdWnSr5rm21B8EcVt+uBGEARBPEy0w5nHB4XRmselo+GtRjo8pJuZgZi54oxlUFw2clrsrcjYwz/oKTFk6OgKz268QF3wwotDhFCkpkc3ePOwtzFegzDFj4eMHeE3oi+4G9Zw/Sbq2b/aG/W4zP51GD4Mk7y68LOhcR+ACf78ewPOXOZnKXGAzwgv5kTUYnvyVwiKzcAhl+FYyMPN8vpD+354bWwfJkGGphuCnu8v3LOu7BpzIa0hO6ed8VL4UPjwECvLI+StyZhpcibONNrKc0jf+A2eF2aOV+GVlItNH0CaiwV5GnD33yg7zxufOYaJXwj6EDg/TXCM0XgLNTe5A2YHp8FPI3JwJ+a4XUR6USM8x4zAiz2lsLBqfXJD+EsD0EvD8nPvht48yaE/Jr7gwdrBHu69XaGX3m2UX2IPDHy2MSMNoYKMvkAUf4hgrnVlrXKGV5HvoAF4gTvqurITBEEQRHt0HjXuCB3nwVwWI9wGYuJQE7NRDxQpxG4QAlbJ3VuofSgGZOZE+L6I9R+MQ/wU5kRWlSIpeStmb+Rh2HaCthq71v6IhIwrNjqMd3H1RktC4zZg3xmuXcS1h7jFnMwqWWG0uHzhOv4tTBy3QJ+aDXM0XdQ76QRBEATRDmce7eExZiySpvLZLhEhdPve8/CXFv63H26i+FQ1c1j0s5a6ULI1Gqtx/PxN9uUmSvLO4kwrhLjVoHFyFGapGo4dx45Sfn/mvlSexa58/t0Vgd7GO6Brkb1xN9Ju9MKEyRPxjVA/LcpOlOPyPQd07cpUqPECvtt7SXQmtddwcP+vqGOqNdCvtxjetkgHuLiIG1b27C5AEQ+Paq/j6OY0fFZoyRVsQE29JLT6Shwrvs0UxRdr1vKZYzlsa43bOHGmipX7Hm6UlSBH7RpNc9hJ8lCGreXPFxEIcRY3GJUfOopvq4CBYcMxw02//rFF+mQRWcYaRdha/tjyVgH5nahfIrmwybwrQRAE8ZjQDp1HhqYr/CMmYos0wO1f9MJ92O1ptGFG1V9E6Yw+/XiwVn+t1bB1hx4YNowP5HJo8++KTQ5tj6b/IEznIdPGy0j64O9imd/NwHa+5nCwL0L7m5iFqinDJ4kpCFLUz+GJ7uhpL88S30Zu6vdiOHTOV4g9VMueATwwPchdhYJ1hFeQr7iur+gwZs1fyfJIwe93X4FJf1onv2okLV6NwLnpyNb+Lwzowe7UUIio34ptZzls7QDvQb3Y/+Uw7kqEKjchNRfdrLkibC1/5A1YdcX4YjMrm/2TeOuVUZg2QTr/y3yUaJuhT6qQZawMW8sfG96XeZc98BznSwxu4Mxl47WxBEEQxONC+3Qe7ysd4dq1uY5pR3i/NBZLw3oyB4DDX3kzGjEBjsKRaVwQPC0Us32YA8ex74nItyZheZiwYtA2dDNdNqDpgYiYV7Cch6ClJPF1MhPxnfDqGClJhzNGRAQjUi6vUMexWD97ELvKHh6hE7A+eiQihM08HL6hJxBrPp6MCHkdnxU0Pf2RED9WcQ9enlBMHWxq7pCXJ0B/vx7d0cfZA6/Mf1F/PZfpXFYms1OPfNfzc/g0XNluY/Fl9BBhPWPzMSUPJXdQsvcXpDd2QvCMIAQ7d4THmNHC7mtUnMTmX241Q59MI88wy4gyDmd5qZ1lNIHOcXfCoN78X4IgCOJxpH2+55EgCIIgCIJol5iaHiEIgiAIgiAIk5DzSBAEQRAEQaiGnEeCIAiCIAhCNeQ8EgRBEARBEKoh55EgCIIgCIJQDTmPBEEQBEEQhGrIeSQIgiAIgiBUQ84jQRAEQRAEoRpyHgmCIAiCIAjVkPNIEARBEARBqIacR4IgCIIgCEI15DwSBEEQBEEQqiHnUS13zyE5KgmBb25FeqVWSmw9GgszMPZNlv+SY6iQ0toL7blsBEEQBEHcX8h51HEPtXnpeJ47SW/+DdM2luKG9Mv95x5uFGZiGivL88mnUSulmsaWcwmCIAiCIFoGOY866pB/+BIahO9alGUV4GjdPeHoQaC9UY/L0ndrNDlXW45N7/2NOcFtM0tKEARBEMTjCzmPMnUXkXXsFhwCArEooDPQeAlZp+qkH+83dnAJiMD+DTHYHz0YLlKqaUyce68B16+T00gQBEEQROtjd48hfW8/aK8jf1c2PtpaijJ26ODzND6dF4wR7vbi760OD1nvxMvJl/BS9Ot4B/vZ97NAQDh2yg4ZX/M4fwdSGvogftmriHA39rsbUVH4Cz5fl4f0Kua4uQ1A/IKxiPDsIv12AltTc5FSdFs428HHF3FTRmKCb1fBg+frCsclFqLOJwQ7Fg1HD6PjXuwcbWUptmzJwid5PDjtgoipYzBvghd6nFacOw9Y8m42cvlNZBx8sWbVC3BJ34IZqdVSIkefRy9eCLmOT4zA8qDrWJlyFpeZDLa/eAFTm5TlHHb9dAiJGVfE2Vr7noicMQpTxzwp5mUVS/IyrqsGngEB+NO0Z+BvUgfu4UZZITZszNbJV8Y5bBJ+mvUk7I10Cm5e+OOcEEwzkP+/MHTWeMy5VSCd1wmB4WFY9PpAXZ0slsuM/Hb+3hU73v8eSRUKh97o/gbI+YC3Wxj8O5hKu4X8jZsQleGKRXH+qN+XLZaJtcPsd8Zjnp+JfDmW5FB3Ggnv7EY6+iL+o8mI6NlB6hfn0H/Kb/DVZDeUbresQxblOMkZp7Zl4c+CzrDrIsdjYagHnHg2rdQ+BEEQRNvTDk1uI8qz9iJGHkQYDUX/xO+X7kd+fVv5uXLI2gkDenaBy5CBeIn5Ag3HipGvMnStLTuMhYm5oiPEqTqLhI2nUSGsSdyPBYmGjk1DUSESEnfi67I7UooV6kuxeulOyWnh1CJ96wFk/KryepPwPPbg81/kPCWKjiKWOT5c/g3Xb6JeTNUjlCUdCbLjyGm8gpSUdCxMK4eaOU/z8mI0qasWZXm5iDKnA3VnsCJhbxPHUU898jdvR5RCp1BVik8St2N1obJ2jcjdmK447zZyd2dgaVa1WCe15bImPw6//4p/IKfFSyMuYUniLn2ZWDus/3Qvdl1pFI8NsCIHZ2/MmNiD5VGOlN2/4ob2MnZsPYcG+yfx1tjeZoyFKR0yJcddmPT2Fryn0xl2XUomtgn630rtQxAEQdwX2p/zqK1E5k/leqdEpqoYaQVtFEaWQtbo5YVR/TuyQbQvxgy3LXQtrjvUwHNUGHasW4DMD0IQ0dWO/XAZ274sZINdJwRO+Q0yN8Qgd90bWD6Kz2dWY132RTYkWuMOSvYcQApztBx8nsXGVQukPJyl3xW4D0fS2kmIdOAHfJb0beSu4TNVHeE9eSZy+f2Fz3xsi+wLB9xC1plqozLwGZ0JrB7sPGmmUY+JsrC8dkT7wJMN4cW7CnD8rnSqBczKi+VRcegXlj/gGTZRlNeGuVgT5mpWBxrPX0AWqwCfZczh5y8LQSD/wScEm/msY+UZrMuoAdz8sEYoL7tfnB8rbw2+3XfecJMRn7mLjcRB+Z7MQTlyqhI3bCqXkfw0Hpi5lLWDLPt1MxE/uBMreAWOn2+i6TbDZ+ZXL5uP3FUTEenGunRjNY6V3ZR+VWBVDkxHXhrN8gDKMrKQuDoLayrsETwjCMHOvG1s0KEmcmTw2eUPfqevP7tvbgmTfqu0D0EQBHG/oGAPD1mfKsYePvJVHMGMOXy39XrE5jFnkg2Kew5fNBy8zGD/pDde5YPuoQxMmrMBK/K7YMbsp9FLXn9o3w+vje0jhug03RD0fH9w16+u7BpzIa1xF7W1vDyd8VL4UPg4soGc5RHy1mTM9GTOrkp4qDl94zfSjvJVeCXlYlMnXcAN4S8NMBMKNFEW2KPXiCF4gTusDddx4ar1eSCz8mLOQPkl5kjwWb2MNIQKZf0CUdy5YO5JZW3TmVb7J/phjD2TZcYOBPPzhbA9c0w9uwoybqysRgE/seokouavZPmtRGjiSWH2qsnMoNcgTBFCvo7wG9FXuF48x5ZyGcuPh+iPIXnJZ+wadt2cTUg4bW6W1Fbs4R/0lLikw9EDwf7iMglTclIlB8f+eHWCB3MIa/FjXiUa3P4DkaO66wyFah3SybEzPPoIWg9nfz+M58sSNE7o10+vt63TPgRBEMT9ov05jxp3hI7jg5cRbgMxcaiJmbYWo9xl3RTVoWtHL0R/OBXLI0cgwu0G0lN3Y8af97VhqN1GtNXYtfZHw1Dzg6RZ8rKHu4sJZ1njgO5dlarcCYFhL+LjV58UnXULOHTtwtyQlmKmXBLaKyewdEXT9ZhWuXsLtTfvj/7o5XAbFZfq9Dpy/Rou1ElTyQ9Ah1qnfQiCIIjWpP05j2wg9hgzFklTveAppQhhufeeh78wy9XK6ELWI7GZhxl1ocXXECPsAFATuuYbbrLwUeZN/MeY5xCfOF0My1WVo6CqA7pyx6bxAr7be0kMr2mv4eD+X5nbqsFAv95wF/KwRAe4uHRm/97Cnt0FKOIOlvY6jm5Ow2eFfBbQHA2oqZcG/vpKHCtmzgvfPLNWGXK0FRNl4TNrR0/hZ+5R9OqDIT2sqZUFeVXek/LXKMLD8mce4gOM956zvAoK8G1VJ0REz5bOewtJs4bCW9IXjZMjevMvurCoPk/ru9ll5HqrLZcM38xzEUeUYXVd2NYKjdU4fp6Hn2+iJO8szqhYDmAJNXLQXjmDlKwa1o6DEPOiKyuDtP6RX9dqOmRI67QPQRAEcb9oh84jQ9MV/hETsUUeQBa90EY7reWQNXPiRnvBSykNjRtGje7GvqgNXdfhx61pmMTD3nJY0t4VT7h7SDOpt5Gb+r0Y7pzzFWIPsRztPTA9yF1FI3SEV5AvgvkmnqLDmMVDe3NS8PvdV2DSn+jQA8OGcUenGkmLVyNwbjqytf8LA7hT11CIqN9aCTlaxERZWF6TkouEdZ3B4wZJcuS7gdey3z5Hgm6DiRIz8urRRcpfGR6WP6beW2kHp57d0Z/dLz15veLc9UhILwXf4KzpPwjTBedUDovK56xCTOZVKR9ryPVWWy4ZuXyKsLq1sLWu/WqQkvgFy//vmPHZSeQaLky1GetyqEXOd3nIaeyMiKmjMf1/D5Pqe0Dc2OLo2ko6ZEjrtA9BEARxv7DutzzSyCHrThjcx9lIGMxZ8PfCQPbNeujaDi5DR+LDsJ66WRgHHz8sjR+LEOeO8AidgPXRIxHBNzMIaOAZEIg1H/PXoahzijU9/ZHA8ov0kWes+CtSQjF1MHcyjHHGiIgA/f16dEcfZw+8Mv9F/fX81TpzWZmaMW0kliUcMcrZNv5qlbjXsTy0hyTHelwo426FqfV3luRlZzp/Szh2xVCdbGUUu4A1PRAR8wqWT9HPZjcHm8slofEcjg/f8kOg1NS8rn+Z4ims1zONC4KnhWK2sq3emoTlYdaC8FawIgdt2Ql8lncLDoMDMPcZF1ZfP0Tz3dfsIWRNeglqNb1bSYfkWVyJVmofgiAI4v7QPt/zSDz88L9yw99tWO0hvTOwLWaOObXITv4asXlARPR0KXx8ByXC+wivYaDwfkKPx/0piSAIgiBaDRpTiTZB+2spdgmveRmDCW3mOCpRhq1XSy+ydsFoH1dScoIgCIJoRWhcJdqAWuSkn8SvgwPx7hg5jN1WuCBk9iSjkCdfFjAC/y9uMn7vS3t1CYIgCKI1obA1QRAEQRAEoRqaeSQIgiAIgiBUQ84jQRAEQRAEoRpyHgmCIAiCIAjVkPNIEARBEARBqIacR4IgCIIgCEI15DwSBEEQBEEQqiHnkSAIgiAIglANOY8EQRAEQRCEash5fMjRlh3AzDeT8Pxfj6FcKyW2AxoLMzCW/6nAJcdQIaURrUvrtP0t5G9ci8A3VyEm86qUZgstvf5RQ5bHWiQX3pLSHg8eRJ8nO0MQDwZyHlGL7OTPmbHnfxNZ/3l+SQZ25F3GDemsdom2Gru+Po5i+76Im/MUPKg1Hx+o7e8D93CjMBPTuD1IPs0sBaEekh1BPMrQkIM7qLneKH3X01BUiCXJWzH7s0JUtKMZPT3MOJ/+J1JOd0Hkwv+NiJ72UjrRrtCWY9N7f2MPJFuRXtlaikRtf7/Q3qjHZek7YRskO4J4dCHnUYcTIuPmIXdDDHLXRWLNVC94QouyQ/uxNKuafWtv2MHJNxRbNvwXon0dpTSi3XGvAdevt7b2UNvfH+zgEhCB/cwm7I8eDBcplVADyY4gHmXs7jGk7+0H7XXk78rGR1tLUcYOHXyexqfzgjHCvS1mWK4ifck3SChyYM7jTDYYd5bSG1GeuR3/mXIRDT4h2LFoOHqxVG1lKbZsycIneTwQo4FnQAD+NO0Z+Atla0RF4S/4fF0e0quYw+A2APELxiLCs4uwNmdc4r8wNHIy/oBjeD/lLKsbvz4YH8/2h7ejnXROIRA2CT/NehJCjibSLJfB+HcXRESOx8JQD+YeW8N8+TnW7qtELnedatkZcfcckufvQMoTz2HzLDtsXpnTtEy6c0ZgedB1rGQyvRwQjp18sDLSIbh54Y9zQjDNtyu7M6P+MrJ+yMKfM66ggR/LOPhizarngK83ISoDCp3ga9mUaZCOXbEozh/1+7LFetn3xOx3xmOeH7tP5THEvJuNXDFnESH/F+CSvgUzUqulRA5rp6ljMG+CF3rxApqp246Iq4hefATF4kUMK3LkM5/vf48k5fS5gSzkejUgMPJ1JIV2l06SsPl6RyM5mZJdZ31/mDUec24VSO3UCYHhYVg0yRmntslto9BfnUyCsGaKFmmSnja1D1yPT2Brai5Sim4LKQ4+voibMhIT5PY3wFq/NdRjQ26iJHOv1J9Z+cNGIrAmH0l5dor6G+Vv3NYt6XdW28eIZveZOyjZbllnjWXVw+DYD3VNrgecBbvWF2Wq8mb6MiUE4ReOICHvDiKip+N9p9ym7cPrkXUE6zYXIlcIKvF2CcSccU+Z7iMEQdhMUzv6wGFOW9ZexMgGjNFQ9E/8ful+5NffTz/XHr28PdCffz1fjfK77N/6UqxeulMy4hwtyvJyESWVTVt2GAsTc6UBglF1FgkbTysWcjciN+V7zBAGGg6/Pgfv/3BO/dpKK2Xgg8nXy5W/1yI9JQf7VIRMLZbf2n2t0dzri/6BGYuzDcu08qDhNUVHESvJtOH6TdSz//I3b0eUQodQVYpPErdjdWE9O6hF9vodeM/YcWwWl7AkcZe+Xo1XsP7Tvdh1pelSCMuwdtq6B5//IstHokndjBHlGLP2hPpNM1wWK/6BnLpm9qeWXq+D9YeN6Yp2uo3c3bsw6e0tirbh+puJbWV3hCOBooOIUugptw/v6OrP19rtx4LEbJ3jyOHLUBISd+JrZT4S1vutOfgD5i7M1vVnVv6MA8xxVLaSXB5F/kJb78SCzaVCv2/1fqemfWzuM6Ywo7Otgqm8mb6k7mOOI09rRGVt07ZkAhPrkSI7jhzeLtmIWn4YJXITEATRItqf86itROZP5U0H9apipBXUSQf3B41jF/SQvnOjXXHoF6RUAZ5hE5HJw9sb5mJNmKuubOIaHw08R4Vhx7oFyPwgBBFd7aTrJfjTfFwkDm6Yj22RfeHAB4PsEhRx59Qq91BbUIBvLZRBFyZ188HyZfORu+o1xAdYn3PkmC+/9bpbpiXX8xmIiaw8MTiYGIJgPnHABrWcc0oN4TNWE4RzcvnsQ+UZrMuoYTLww5pVC9i9WF3i/OCJGny77zxq71bj+PFb4izgWl6WWYj34Rn3QfxfQuHfQcxVLXzma7Ug64mIdOPTJNU4VnYTcB+OpLWTEOnAz2J5L3sbuWvCWP4d4T15Jrsvvzf/yLpwC1lnqtmwqMSwbn08R2OT7jr2+Vs4IljRG0qrUWHKV9B4YOZSdl/5/HUzET+4EytjBY6fV+E6t/R6a/CZ2ljeHyR94PCZtw9+p78Xa7fcEqUTIctEbldW/+KLKBYeni5j25eFzAFi50z5jahr697A8lE8cFqNddkXjeRrSe+toLNV8r2ka7kO6LiGfamnWXlcERk3V5ShoCdAWVYBjjIHr0X9rtntY2OfgS06awrF9XI/se+LP4b3Y4/pNuSt05f5TWfJGdqyfCzj9bDvjZjFTIdYfgeXhWEyv1/FKfx4+vHaAU8QbUX7cx7bEdr6m2y4kbmN8kvMKHFnLyMNocKu7C8QxQ2V9BRs/6Q3XuWDwqEMTJqzASvyu2DG7KcNQ13d+uFFIQxkD49nh+Il7rM0XMeFq2oeiRtQcqaC/d98GdChJ4JD+OBShNh3P8O09aVwjRiDCHfrTW2+/NbrbpmWXO+C4YGeQuhK03MgpgznYcAGnLmsnA1xQ/hLA6QQIMuxshoF/EvVSUTNX8nutRKhiSf1sywdemDYMJZPQyGifsvLshEJRWyIcuuOfk4qnAYD7OEf9JQYMnX0QLA/DzVal4m28hzSN36D5wVZrMIrfHmE9JshhnUTwqR5B5AQyzfhsGvf3o10iyM3D4keQ/KSz8Tz52xCwmn9jJx1Wnq9FbwGYQoP8aMzPPqIDznO/n4Yz0O2Gif069dRSDNElokdnAYNwAvcOW+8hZqbzHmUH57s++G1sX3EpRqabgh6vj+c2de6smuKPi2iqt+aosm9WHk8h2CioAMSd/+NsvO8gWqQkviFKMP5acwhZNdJZW5Zv2tu+9jYZ9i/6nXWAtpryE7JYvW3R/CMMZggbfZSnbdOX0wjb9JxGD4Mk7zEdtC4D8AEoU2M7QZBEM3FXB98cGjcETrOgz11GuE2EBOHcvN/v7iD0vxSYW2Zw7B+8LY4G2UPdxc2yDl6IfrDqVgeOQIRbjeQnrobM/68T11YV8GdmlvMRbAVqQxwhP+sadgcHYKYACeU5R1B7OItSDYbelLQrPLL920uLb3eNhy6dmES6gAXV0MNc/Dxw9IFQfB3VDqPd3H1hjXHuBnw1+ys/REJNofNpTBp8hFFCNQy2isnsHSFYQjXFpp/fRvJri1opX5rM/ad4dqF6VsL+l1L21cNQp9pts4q4UuSMrHo0A14ho1DQmgPcQBqlbwJgriftD/nkRlFjzFjkSTsdhYRwoLvPW80sLchfMF1+o94X1jA3RkvPdsXLtzhcOGzXhpFCEn+zEN8gDNq87LwUeZN/MeY5xCfOF0MH1WVo6BSMTV07SLyeEiTG9LDBdjDf+rVB0N66JuiofQSSvjAUX8Z/zhaxdxYGUUZhBCXcRlcgLozSP7sOGqffAozo9+Qwj+1OFBUA8vuxj0L5b9npe7W9lJak52l62tx7ESFuDbsSjFSj/GwkysCvc1fo3FyRG/+RReC099P2PlZdx5pWTVwCAhHhpy+KBRjpA0Kem7jxJkqdu97uFFWghwT6+XU04CaemltQn0ljhWzwV4XNpfDdNZoRMWl6yynzoiIni2UWxfKNwkv90UcYTrGNybk8LrqQsFqaMn1rSk7G7BzQNeurC81XsB3ey+Ja4m113Bw/6+oY/o30K833IUTZSzpvaLfmkJxr9TDV1n/4nU9hbR8xaOffI4ybC1/vohACHsebn6/c25h++qx2mearbMyTDaF+/GHlIuAz0gsefVJ/Qa+FuetR65Hw7Hj2FEqtoO28ix2CW0i2w3e5ul4/s2/YdpGcd0pQRC20Q6dR4amK/wjJmKLbLwWvdBGO62V3EBKovSy8Dkp0sJx7qQ9h3nPcIPTEV5BvmygVoaQ5A9/hx93DOrw49Y0TJrD85DCR/aueKKHoux8Mfziv7Nr5NAMG9BGe8GLtYT9E/0whp8qh47mKzcOcBRlEEJcxmXg7uE9XD2Si6h3Vynu0QmD+zizO8l//eJzadG5MebK38VK3a3NglmTnaXr+YaJ74RrguKykSM4214Y1d/8bKWm/yBMFwZgOQQn30v6KyiOrhjAnPWGvN0I0/3GBpLkXOQLDoMDvAf1Yv+Xy7sSoYv3Nm92Rw6RoxpJi1cjcG46srX/S7i/PmyuNgQoO+G3kJ68Xii3TiYmsYNTz+7Cpq+6jB0I5vW0KezcnOtbUXbNQRe5uI3c1O9FXZvzFWIPMX2398D0IHcTRk9FvzWFxg2jRndjX24jJ2UTgoS6KjZ3cXTlUYSt5Y/ur6I0t9/da2H76lHbZ2zXWZk6HN1XLIbBiw5jlnwPLoMW561HV4/Gy0j6gNtZ1kfezcB21iYOg30RKtgNxfKfsuusZARB2EpTO/rY0RGuXY0HCeY0BoxAfPRUrH/LV7cuSNPTHwnx4YgxOVOmgcvQkfgwrCcbKESEUGj8WIQ4K2ZMvX0Rr5tV5ZtBXsaKiR5iQzgPxLx3nkagVBzx+jBpw4WI5TIwnD0xY66fLg++wDzyrUlYKJxfjwtl3CSbWpNnZ7H8Vu9rheZf747IyJHSJgTeLoFYE/ssvC1prqYHImJewfIp+tlrQzrjCS/jTURsIOG7lrcUM3eVyeKZ5/BpuCyLTggMG4svo4cI6+ZswxkjIgKk8jN6dEcfZw+8Mv9FRPpIM0S8jeayOlqdaukI75fGYqmujXi5RjOZmn/Xo8ZzOD58S68PvE3/MsVTdT1sv741ZSc7y7ZgD4/QCVgfLesMR9KbjyebeKG6Zb23DGuPiS9jtbKu4RPwQ6yvoq6myqOkZf2upe2rw1qf0fRups6qoDXzNlkPcdPdd3HDpb/EJD/gML3w7NoMvSQIon2+5/ERxPr74u4D8jvhqj0Q/5GpgbQdIb+ProHvUn5V1YYfdfCQ1U68nHwWkN9vx1L534l+g78/sddIbP54tGXnlCAIgiAeY2iIfIzQ/lqKXRWGuxwfZ5Rh6yDhxdsaeD7lgd7UKwiCIAjCLDRMPjbUIif9JH4dHIh3x0i7HB9L7OASMLZpGNHNCzFvRmDlDC8Vf4mHIAiCIB5fKGxNEARBEARBqIZmHgmCIAiCIAjVkPNIEARBEARBqIacR4IgCIIgCEI15DwSBEEQBEEQqiHnkSAIgiAIglANOY8EQRAEQRCEash5JAiCIAiCIFRDziNBEARBEAShGnIeCYIgCIIgCNWQ80g8fNw9h+Qo/jeptyK9UisltjMehjISLaaxMANj+d9HX3IMFVLa48kt5G9cy/T9cyTk1UppRJsg25aoDOTfldIec6gf3n/IeeTUX0bWxm/wPFc+9nl+SSayym5Kv5UiOfZvCJybjuy6h/AvOT7s5VfD41BHwjzU/u2IRlTW3pG+E3ru4UZhJqbx8SX5NFrVvSb9b0e0YTu3M8h51FYjPWkb3su4ggYpqaHoJN7beFp8gtE24Or1h3jm6GEvvxoehzoS5mnS/ndQsn0TAt9chZjMq1Ia8bCjLTuAmQ/x7JL2Rj0uS99bFbJ/7Yo2a+d2xmPvPGp/PYOvT98G3PywZtUC5G6Yjx1xgYjoaiee4DwY8V/EIPeLCIQ4S2kPEw97+dXwONSRME+T9r+L2tpb4m/EI8PDPSjbwSUgAvs3xGB/9GC4SKmtAtm/dkQbtnM7w+4eQ/reftBeR/6ubHy0tRRl7NDB52l8Oi8YI9ztxd9bEf40+8biIyi274v4jyYjoqfRPfj6kvk7kNLQB/HLXkWEu6G/zddajEv8F4bOGo85twqkMndCYHgYFr0+EL2k07WV57Drp0NIlGc47XsicsYoTB3zpO4cQ+7hRlk+VqzMQXqVlsnADx++3hsFiRn4IWQSfpr1JCDcuxAIE495ycXyKNJMld9IvnDzwh/nhGCab1f2NMHXLm1CVIYLYqIH4Oy3h5B+/Uks//RlZpjuoqLwF3y+Lk8oE1jXiJg6BvMmeJmog4V8HGss3F/RJvw3AQ08AwLwp2nPwJ/rgHGdup83OJ5Qf8joeoaDL3s4CMOwCyrzfmIElgddx8qUs7gcEI6dJgyBtrIUW7Zk4RNhjZeVMhrpjYDFdqhFdvLXiM3TIjjyNSwP7QFN3WkkvLMb6T1GYvPHAUDaFsxIrRayEjFsD4u6OckZp7Zl4c+CPrLrIsdjYagHnIR8Gi22s1qd19N8ndLdK3Iy/oBjeJ+1R5kg62B8PNsf3o5ssDSQ9QvA598hoahRvLWAEyLjZiLat7PlNjOFxTbS97c6nxDsWDQcvfg5OuR6uyL+gyAgfbe0HlApb2uyOYGtqblIKWIPuAwHH1/ETRmJCdL9m7SVQfkst2PTawcgfsFYRHh2kX6zdm8lcj0aEDglBOEXjoh1ZXZu9jvjMc+PX8NnhC3rrOkyjUFAyY+YlHJJuELGWbBxfVFmNU9jbqIkc6+kS0xvw0Iwf9AlRCefx6uSnjSxo+wqU2m26JOxrvSQddtaP6ovR/r6H3XyjHzzCVz96gjSIdo0f5iwNcbXzB2FYcV7EZvtaXiNnEcHdh+5HynTrOh/E6zdt4OsJ9D1Sb3uKNOs6a4hpvqh7WNu6+iFPC4blkXFWGFqzLFV/veRB31/EzSiPGsvYmRhMRqK/onfL92P/PrW93M17h4Y7cbE0HgRCXFfIGbjEWTL6x1V04jcjemI0pX5NnJ3Z2BpVjW42vM1KauXpiNBERpH4xWkpKRjYVq5eI4R2iv5iE/IljqOFEpPyGAGQjhsAfXI37xdUVZGVSk+SdyO1YX1UgLnMpKSD4j3b7yFmpt3caNwPxYk5urKBObgpG/diQWbS3FDSmmKcT51Ku+vRIuyvFzEbClugzUkZvIuOopYwYgw2V+/yaRmhNCmOyVjwBHziVKtp9bawQXBEX4YyHQpZ9c/cbz+Nkr2/oL0xs7MiD4Fb5M9l7fHHnz+i7ImpnRzFya9vUWxVINdl5KJbWV8rRpfs6Omna3ovEmaq1PsXinfY4bUHqKsc/D+D+cs6J0JbG4ztX3FGpeQsPh7yXHkcHnvxgZV/S1b57xxGooKkZC4E1+baytevi8LUaq13o7assNYaHDtWSQIy3Xkay3d2xysrVL36evK7Nz6T/di1xWlM6+El0mvs+bKZOg2WsMwT0PY+JK5C7N1usT0NmMv/iv5FOqEYxtosQ3gWOlHwrKq7QbyTPmCOY6WxgFT13y2A7EZNvUWho3632r3VWuDLGDzmNuKemGMWj1pMua0lv1pG9qf86itROZP5foGl6kqRlpBi5uxKY5e+P174zHbpxM74ApzALGLv0TM9ou2DUz8CTs2Egc3zMWaMFeWcBtHTlWyPNjT9p4DSGGdwMHnWWyUQ+PRPvBkSlS8qwDHm+yYu4PSg4XIYfZWd82q1xAf0AqT4JVnsC6jhj3ByGH6BciM82NlqcG3+86zLqqHz/iuXjafnTOVPc3+G/tSTzMldmVPh3NZWgwr00REugFlWQU4amGhtkE+KLZ6f43naGzi+Uufg4khCGYPaA3HL6BExe5C/fVyW3RC8H8OxzD2JK0+bz4DMAE71rHzmswoaVFx6BfWpoBn2ERkKu+lVk9VtIPG0x/vCnkW4qO1/4P/TquGw+AAzH2G60FHeE+eqasH16ltkX3hwJ7is85UM1OooIluMviMzge/Q+66mYgfzHW/Brkl/K7X1LezWZ03T7N1ij9xx/F7yfVkBji7BEVN9KEHIhbNYeXhc6j2CIycxfL9LaJ9O9neZjb0FcvwmYZArOH1Vsj7h6NXDNrJQDY9KrGNOYHCDMiU34jlXfcGlo/ibV+NddkX0ai93OScg8vCMLkbN+vW21EMA7OyjQpjes7q9kGIuFzHRL5N7s0LbAZdPYT78QfzahwTHsit66zpMtmjT+hU5MT5wpnfgM/osOv3CjM/NvQDjm58kesm3YOX0yZawQbIWOhHumVV9r0Rs5j11w2/w+bIAUwHzdOca0xio/632n1tsUEmacaY22p6YYwtesLurRxzWs3+tA3tz3l8AGjcB+KtRVFMWcIRIzhozIlMzZJmYlTiNQhThNCMI/xG9BWMnPj0IK+/6oyXwofCh4fZmMnrNWIIXnAQTsKFq8bPQSaucfTA+Bf7i8azBTRWVqOAf6k6iaj5KxH45kqEJp5kHVUur4w9/IOe0i8VuPtvlJ3nprgGKYlfsOuSEDg/Teig4kyJuQ5tmI+q+/Op+swMxMwVd78HxWULjrRtNKIi72d8xDqfw+BAvDumh6jsqvN2Q/hLA8yEN26j/BLr1NyByUhDKJfFm18gind0dl81u03VtYMjhoUPY84tu88vZchtdMV/ThoED6lMPCyTrntLwCq8knKx6UMXR6ebneHRRwxMO/v7YTwPT2qc0K9fRyFNwJZ2Nqvz5miBTnXrhxeFUI09PJ4dipd4Fib7jjlsbzP1fcUaGvQe4iOGqDTd8cLYfsy5AerKrjFXTMZINvcacJ1vgrDvh9fG9hGXE2i6Ieh50QYI15o4R+Puiz/9n1HwvmddtvZPeuNVPiAfysCkORuwIr8LZsx+Gr3U3JunmURRD2azgv3FELgsX2s6a7ZM0u+mUN0POE3qZgcnzyGYKJTTFlpuA3RY6EfyOk+H4cMwyYuXsQu8X/ATxw4zNOcaU9iq/6113+aPNTLNGHNbTS+MsUVPDMec1rM/bUP7cx417ggd5yEYVwPcBmLi0Ja6TpbgyjIYM6OnYnkAX3Mhz8S0f+7U3IKtgXZTOHTtwsxXM7DvDNcuvIO2DPH+0rKFlELmLEk/NAPtlRNYuqYIZeypLSnGX3K4Widvy9jD3UXhjDUDfTvcw82qa7igK+tNlFy+ycwQQ1uNXWt/NAzLtDWt1M6quJ/3akabNbuvtAdk2Tp6IfpDZu8iRyDC7QbSU3djxp/3tcnyIAE1Omtrmdq4HzTPtrbcBtw37t5CrVVnrCkt1/+7uHrDBgdb5r7aBfO0zpjbfD1pD/an/TmPTKAeY8YiaaqXbrpbCIO89zz8hSeI1kSLisztiNl4DPmV0ghd/2+c508grWYAOsDFRVwUvGd3AYoEI9iIiqOn8DO3dr36YEgP42ZQXLO3GOW8OPXl+HHfrybXXzSUXkIJz7f+Mv5xtAqWuqTGyRG9+RfdVDifRhc/FneH2Tmga1deTkUoQf7YsMvP+v1vovhUNRsI+CaHeUK6HFpWDV9jkpiDHHanmOgghd60Qt4CcvtoFKEI+TNP1fICVe2gvYp9O/7FnjS7IXIKD7nI6x95W1fiWPFt1jl8sWYtv04O17WQVmpnVdhyr2sXkSeEPtkDwOEC7OHd1WTfUaJFdW2D6Gw3o82a3VeaoMXlU2ViH2Vt+vPeC0wHNRjo1xvu0hlNkGXTeAHf7b0kLgXQXsPB/dwGSNeaOEdbWYzPlv2MfK012QK1eVn4KPMm/mPMc4hPnC6G06vKUVDVwfq9eZqtWNXZe+bLJNtnzr9vok5sVNv7gUJmqYevspa5hxtlp5CWb9oVMG9bW24D1CDrYMOxAvwsrBtlD5A/nxTHDjPYdE1jNY6f53Vn5+SdxRlFONdW/betrLdx4kwV0y0u/xLkKKN8LbZBzRhzW00vjGm+nrSe/WkbbB427wuarvCPmIgtEdJxm3IHuRnZwscA1mDiTKf5AI06OsIryBfBadnIKTqMWfMPS+mcTggeNwheRnosXOPvhYGp1Sg+nY1X5hiVTcL+iX4YY1+IdGFa+6SUKmLO7dX0H4Tpg48j4bTxNXx92OtICjXzPCPNCK9JuSiEElKkZAGTO01NY/3+LujTzwnIq2b3+dzwPnz3n1W0qC0owLc8xIHLSPrg70gS0vlOxAgMaVHeMoo25aGIDClZQNrx2F06NIN1OXRD7S8HkXj6NhwCxiByojs8mQOScLoQy/YMwVcTXTGAG8CKQkT9tlC6VqRFjzwq2rmHdNhibLkX3zixmH2kQ3YxBo72EvtOk3WPDvAe1AsOGWdRnPodglI7IyJ6OhZZazOjHfHW28hKI+vQoiwvGzPYR08PTPB3Y7VoUngRhWxyU79HaKqUzrHvi+lB7tCw4po8hzlSo6zK1h+OzBX8cWsatm+V0jn2rnjC3QMDrd1bOrQJRzU6a6ZMPexh30OydxVHMGPOEdYvwrHz9zb2A40bRo3uhiRmW3NSNiHIQDB6rNtWFTbA1BsWbETT3wsTeh1FUgXf0LlKof/mUXVNhx4YNow5NXliaNiULbRV/9WVVd83hTCugdykFmvxWNOMMbfV9MKY5o8VrWd/2oaWa/dDjQa9Rj2H5VP0s5zCKwGmhGPzhy+22kynpqc/EuLl9ZQSwgaA18VXsEhJSjSez2JF7NMIFNx79tQSEIjkSB/DNY/OAzHvHfkc1i19/LA0PgyRlqafND0QEfOKUZ3VYA+P0AlYHz2yZYuIrd6/I7xfGoulYT2l2YNOCAwbzWTXGpP0nVotb5NtagvW5KC9jB1bz6GBDdZxrw2ECzt/wvRhGMgckeK0X5BT3xOvzH8RkcJGLwZ/DcVc1jaW2t4k8pOxTCu1sypsuJe3L+J10Qj+2o6XsWKihxkDZgeXoc8gTtc2ThjQs7PtbdbsvmKMPUaGBeGP8n2Fvv8ypnuaHm5ETMlGtANrPpZfKSad85afzgYIef9hJIZ1sCZbLqOR+FDXF2T7MRYhzh1V3LsZaHpb0VlLZWK22NkTM2bIGzA06N/PFU5W8zSG2ZeJL2N1uHwPrkthiH9RWNmpR4VtbbENUIPGA9Nj5Q2dDGFzzTSsFjaEmcH4Gq4TC0Mww0AmLgieFmqQb+Rbk7Bcma+t+q/qvqyNn3kOn+rkz23wWHwZPUQxtrXcBtk+5raeXhjTbD1pNfvTNrTP9zwSJjH1jimCeJQx9f62hwfFuw/bwUwBYQ5T7xl8xDD1Dsf7wYO6b6vwGOhFC2ieW08QBEEQBEE8lpDzSBAEQRAEQaiGwtYEQRAEQRCEamjmkSAIgiAIglANOY8EQRAEQRCEash5JAiCIAiCIFRDziNBEARBEAShGnIeCYIgCIIgCNWQ80gQBEEQBEGohpxHgiAIgiAIQjXkPLYh/E+rjX0zCYFLjqFCSiMIgiAIgniYIefxvnEPNwozMY05k88nn0atlEoQBEEQBPEwQc7jfUR7ox6Xpe8EQRAEQRAPI+Q83jfs4BIQgf0bYrA/ejBcpFSCIAiCIIiHCfrb1nfPIXn+DqQ8MQLLg65jZcpZXA4Ix07m4DlVlmLLlix8kseDzBp4BgTgT9Oegb+7PTu+g5LtWzAjtVrIRsQFEVPHYN4EL/Ribjlf8zgusRB1PiHYsWg4ehgc+6GuyfWAc9gk/DSrL8pU5f0vDJ0SgvALR5CQdwcR0dMRH0BuKUEQBEEQbQfNPMoUHUUscxzL2NeG6zdRX1+K1Ut3So4jR4uyvFxELd2P/Hpz/nYt0rfuwee/tMWKRlN5NyI3dR9zHHlaIypr74jJBEEQBEEQbQQ5jzo6ITB8Anasi0HuoqeBQ78gpQrwDJuIzA0sbcNcrAlzBaqKkVZQx87vCO/JM1k6/41/5mNbZF844BayzlQzV84aiutXTUSkG2sK+774Y3g/2NuSt31PzI6NxEF2TlJodymRIAiCIAiibSDnUYcbwl8aIISEgdsov1TD/tWiLCMNofx1O29+gagMnqaf4dNWnkP6xm/wvPD7KrySchENwi82oL2G7JQs5qjaI3jGGEzoyUPiNuTtNQhT/LpSQxIEQRAEcV8gn8Nm7OHu0pF5d9XYtfZHJGRcsd1h1NGI8qxMLDp0A55h45AQ2kNskFbJmyAIgiAIovUh59EkHeDi0pn9q1GEreXPPHFTSn0ljhXfBhx8sWatMrSsFv7ex/34Q8pFwGcklrz6JJykX1qUd91pJMxNQmBspoW1mQRBEARBEM2DnEeTdIRXkC+C7ZVha/mzFemVWsDRFQN6MPE1FCLqt1ZCyyapw9F9xeIGnaLDmDV/pZg//2s0Lci78fwFZPFFkVVXceEGOY8EQRAEQbQu5DyaQdPTHwnx4Ygx9+obTW+8Mv9FRPp0Eo/teyJy7khEqJ96NE8L8rZ/oh/G8GWTbt3Rz8lOTCQIgiAIgmgl6D2PBEEQBEEQhGpo5pEgCIIgCIJQDTmPBEEQBEEQhGrIeSQIgiAIgiBUQ84jQRAEQRAEoRpyHgmCIAiCIAjVkPNIEARBEARBqIacR4IgCIIgCEI15DwSBEEQBEEQqiHnkSAIgiAIglANOY8EQRAEQRCEash5JAiCIAiCIFRDziNBEARBEAShGnIe2z23kL9xLQLfXIvkwltS2gPi7jkkRyUhMCoD+XelNOLxQtaBN7civVIrJbY35D6zCjGZV6U0giDaDGO70GI7QX24vUPOo0z9ZWRnZCBmLld4/lmPhO2nUVJ/TzrhIaa+FMmxf0Pg3HRk17VmfepZB/+SyepzJOTVSmmEyD3cKMzENKZLzyefxiMrnTbTLYIgCKK9Qs4jp/4iNn2yDbEbC5HbKKWx4T49NRP/feiadPwQo23A1ettMUt0F7U1DdJ3whjtjXpclr4/srSZbhFEC9CWY9N77KGmXc+Qt0fuoGT7JiY3mvFr9zxgHSfnkc+e/ZCBpKLbgNsAxH/wO+RuiEHuukismfok3KWzHmqcByP+C1anLyIQ4mwnJbYGLgiJnsfkNQ/xAS5SGiFiB5eACOxnurQ/ejCT1CNKm+kWQbSAew24Tg81zeAuamsf8PIoQh0PWMft7jGk7+0H7XXk78rGR1tLUcYOHXyexqfzgjHC3V78vTWpO42Ed3YjvbEzIqKnm3SCGgszMC6xEAibhJ9mPQleCuM0TdkBvLH4CIrFSxgaeAYE4E/TnoG/UG6+hmMTojJcsSjOH/X7svEJD/Xa98Tsd8Zjnl9XyZO/iZLMvXg/5SyreycEho1EYE0+kvLsEBk3E9G+ndk5jagoPIGtqblI4U4vw8HHF3FTRmKCr5yPAr7+ZP4OpDT0QfyyVxHR/bx4/EQQ1kzRIm1dHtKrtE3lXF+O9PU/iiFpVs7IN5/A1a+OIB2+WLMqDP4d5Do1IDDydSSFdmcX8bL9gs+lPOHmhT/OCcE0XyeUbt+CGanVYt4CLoiYOgbzJnihl8nHGGNZhGD+oEuITj6PVyVZqGkbnqatLMWWLVmizJu0jTH3cKMsHytW5khy8cOHr/dGQWIGfggR84SK+8rn1PmEYMei4ejFzrFYDrmdnhiB5UHXsZLV+3JAOHZy59OoT+jlaqG9bc6HzzpYaSNzuiQdT6g/ZNQPGA6ivgy7YKWPWCq3dIWIkY410SNTemmEJTnINgF9Ef/RZET07IDavJ14Ofkc+k/5Db6aCHz9/vdIqlAYbgM5Wurr4zDT5RJSNmaLfZc/sC4YiwjPLmI+FttHrQ2xgsE9eBsE4+PZ/vB25M6/NdkaIur8vzB01njMuVUg5cn6angYFk1yxqltWfhzxhU08Hwix2NhqAecdPWAwqaZSrNWFmNbI8nS8TRi3s1GLj9FRtJBvzNSeaeEIPzCEWbb7gh2f1HPE1bstyG6ekdOxh9wTLJRxrLk/f0cdv10CImCDBjcjs4YhaljnjTsTxZ1Xt/u8R8EAem7pWVCSpmye1kbg3T3Mmf3/430Jd8goUgXfmM4Ce3xe6ej6vI2YxcielRgk8U+Y4xcZ7kPu1i3TRb1WoFODs9h8yw7bJbsvEFftNQuFvsoo/4ysn6Q9V6BoIPPMeNhXfct9qvXB6JX9TGzOm7VzprrN7INUknTNnvgNKI8ay9i5IZhNBT9E79fuh/5bbD+UFt9Fad5X7HvgzFDnMXEVkGLsrxcxGwpNlrvdglLEndJzgOj8QrWf7oXu67wQrC6Z+7CbMEQcW4jN+MAcxzrhSMRvpZuPxYkSoOPRENRIRISd+LrsjtSigqKDiIqMVcyzKKc31l7AuX8UFuN9KTt+rWMrJwpXzDH0WKUWi6bPk9UleKTLwtRKh0aUov0rXvw+S+GEhIxJYu9+K/kU6gTjm2gvhSrl+7Uy1xqmygzOqW9ko/4hGyFXE7ivYQMZgiFw+ajthxFRxEr1bvh+k3U89nxzdsRpegTglwTt2N1oVI3jGiVfCy1UUsx00ealFuJCR0TyrgTCzaX4oaUYhkrcnD2xoyJPZgKliNl96+4ob2MHVvPocH+Sbw1trdpo8mvX/EP5Bis+zTR15d/hbDFe/V9t+osElYdQ4lQFbXtY8mGWIM9IKTtVNyDt8FBaXlOc2XbiNyN6Yo8WV/dvQuT3t6C93QDKMsnJRPbVNsn62XRlh3GQgNbw2S58TQqxCMLsPKm7pNsWyMqa02VyZz9VsLySfkeM3Q2il+Tg/d/OCfKSujv6UhQOhHcjqakY2FaOTtbgUWdl7mEhMXf622yINPd2GC275rrXxbsvmrUyMcKJvuMLXB9kG2TJb02Q9E/MGOx3s4L+rPyYAttcS2y1+9Q6H1LMNWvMrA0q9pQd6xi2FbN7zeGtD/nUVuJzJ/Kmwq+qhhpBTa7DVbRrUvr0BkuXZofdtN4jsYmHu6WPgcTQxDMnPyG4xdQYrQzmT/prV42H7mrJiLSjTVBYzWOld1U1J09YUz5DTI3LEDmByGI4OfIsIFsG3PGhKcQ4RweYn8Dy0fx59RqrMu+yFROLfxJZgJ2rGP3ifODJ0tpKL6IYtZ5tL+ewden2QBn3xsxi3ko/3fYHDlAOMcsJsp2cFkYJnfj5e8I78kzdfLJ3TAf2yL7woE9dWWdqW5aZjWyUIUWFYd+QUoV4Bk2UZTXhrlYE+ZqRqfuoPRgIXJYgRx8nsXGVQtYO73WCmF5W8ohtws7h89YVp7Buowa9oTox54sWXm4LIT2qsG3+85bMN625mNjG5lA3w+kurEyBP/ncAzrYEsfMSq3lCpyDftSTzMdc2VP6XPFvIR+BJRlFeComoFIjRxeGi3mmZGFxNVZWFNhj+AZQQjmoXmNB2YufVtXj9x1MxE/uBPrxxU4ft7QcjXp68IsQAg2s/vK9UfFJZyqZobchnY2a0OsIoclXTA5+g0cFPq1l7Q8pwWy5bOfsZEsP7ndGfIyIFk+rB65JWpdDetlEW03k+eoMNGGcfvQlbWP+3AkrZ2ESAeeD5/5Ym21hkdKhIxFdOWdL8xM22K/DeCzTnFiPmJfYQN1dgmK7jJnZs8B1t/5zJ5kR9g5O6J9WHtqUbyrAMdV67wM151ArOHtrpDpD0evCH3T9v4l65ds97shYtEc1n58HtMegZGzWD6/FWbCmi0fGRv6jGms2SZLem0OPnM5UZC5ri8yRzDnnLI8NtrQu9U4fpyVg88CruXlnIV4H54x08O/hBrqoBqa9KvbOHKqEjcs6Li1tjLbb2zE1pH40eXuLdTebO4TEINPZWfqd2sHxWULDkhT7OEf9JQYGnb0QLA/nyqWnn7lNQz2/fDa2D5wgh2cPIdgonCORJNzGJpuCHq+P/i8aV3ZNeZCqsUN4S8NQC8Nu8+gAXiBK2LjLdQwOchOtcPwYZjkxe/fBd4v+InnmMNE2TTuvvjT/xkFb6ZpPISTvvEbPC/sZl+FV1Iumn86UyMLVdxG+SXW2blRz0hDqHDvLxDFDYAsdwNkI9QZL4UPhQ8PebB2Gv+iKN/mY0s55HYRjxorq1HAv1SdRNT8ley6lQhNPMkGVmYQzM5ScGzPx6Y2MksjKvJ+xkesbg6DA/HumB6ioVHdRwzLbcDdf6PsPL+oBimJXwj5BM5PEwZpWXetoUqejv3x6gQPNjjV4se8SjS4/QciRzEng//G61d4DMlLPhPvP2cTEviDVhOUfd0VnsJDVBe88OIQIZSm6dEN3orBRH07W7AhVnGAzwgvNtjVYnvyVwiKzcAhl+FYyEP7LZGt1yBMEcLmneHRR7BKcPb3w3geCtM4oV+/jkKaalSUxf5Jb7zKnclDGZg0ZwNW5HfBjNlPm3G8jNCVV0K1bhrRrR9eFMKV9vB4dihe4n5Cw3VcuHqnqR1h5/QaMUS0ocI5rC46LOi8Dg16D/ERQ4+a7nhhbD/Wmgqbb3P/amr3zdJc+ehQ22fMY9k2WdBrs7hgeKCnIHNNz4GYMpyHkBtw5rLSotpoQzv0wLBhLJ+GQkT9lpdzo7gMwK07+jnZ7qDp9dQRfiP6CmOQZZvPsNJWLeo3Ciyq6gNB447QcdxoG+E2EBOHtmZYWcT+iX4Ywzs8e3I/ft7yk/udmlswfYYUak9R7tYmDNBWY9faHw1DOK2I+baxhD3cXWwc1Ixo3n2NaX45HLp2YWal5Qj5tFIbaa+cwNI1RShjT+dJMf7wEKzMfegj9p3h2oLoAUcvz9uouFSnl8P1a7hQJ06xCPVbYbhspK1prXbmG7mcfF/E+g/GIX4KG2yrSpGUvBWzN1oJ+beCbJtyF1dvqHF4jZDL4uiF6A+nYnnkCES43UB66m7M+PO+ZixvehTsd1vWoeV5t7jPWLVNzdTrVkTsox3g4mrovfA180sXBMHfYO1lM3XfKiraqpX6TftzHvkT3JixSJrKnyJEhBDNe88bCb+VcO6LMcITB3vCXZeJdDn0w7339HQs3K5fm9JQekl872P9ZfzjaBX0TX8TxaeqmVLzxcV897FiGtwW7BzQtStrksYLSD18ld33Hm6UnUJavsI9UZzz3d5LYsfQXsPB/b+ijjXnQL/erbJDXOPkiN7s34ZjBfhZWEt1EyU/n8TPlrwKE2XTVhbjs2U/I7+2EseKmeHQTefLYQczqJGFAvNtwzqzC29fjSJcLH9M7RKXz7+FPXuLxXVA9eX4cR+Xb1PM39cYW8uhR24LfahEf60tO7mt5lNvYxuZgq/zSsxBDrtTTLTSYLZyH1GGM+WPyh3fauSpvXIGKVk1QK9BiHnRlemhtP5R0MOLOMK6hHPYJOTw63QhxJbRWu1smVpkb9yNtBu9MGHyRHwjtIEWZSfKcfley2VrG7dx4kyVJNMS5CjXQ1ptZ1aTvCx8lHkT/zHmOcQnThfboKocBZXKUbMBNfXW4qot0M1rF5EnjBls0D5cgD381r36YEiPjno7srsARcLA3IiKo6dEGyqcw+tnC1pcPlUm2hvtVfy89wIrs2zzW6l/6dCiurZBGvtamre25X3Gqm2yoNfKCV4DanHsRIU4Tl0pRuoxPlPsikDvFtjiuvNIY3bDISAcGXL6olCMabIZxYLu24xSx6211T2V/cY6zVatNkXTFf4RE7ElQjpuU1wQ/FoAgo9lI4cvHF3MPtIvrCAYOOUZaXayEOnCVPVJ6TcRcb6oM/r0cwLyqpGS+DlShDQJW9Y4aNwwanQ3JKVWIydlE4IMMpKQZmbXpFxEbur3CE2V0jn2fTE9yJ2VuuVo+nthQq+jSKq4iIS4VQqZWMBc2ViHH+XoigHcWFbw6fxC6QcRk3NuamTBsN42HeEV5IvgNNa+PFycISRKSDsB3ZUSY+f7e2Egu2/x6Wy8MidbSjfE+n2NUVEOMxEWTf9BmD74OBJOG9+Lr0sys5vYBFbzGWNjGzVBi9qCAnwrLMS+jKQP/o4kIZ3XLwJDWqWP6HWMhzMN8lHsareEdXl2RM53ecjhb2CYOhrTPYvxSzZvtwPYFtIP03t2R3+cRXHGDgQbtKM6KZnDerlUzj3KO0XvDsDyT19u6vTVlOGTxDP4RDrkODzRHT3tWy5bdTjAe1AvOGScFZdwmJKh1Xb2hyN7nPtxaxq2b5XSOfaueKIHG9bk8CHTt6TFq5FkL8oiSDrNkBbYb1NjxmgveGlYPeT+XnQYs+Yfln7ndELwuEHsHPZVzXpBHcwZysvGDPbR0wMT/N0Em98qY5CibYpTv0NQKn8LyVTMaFHeGji1tM+oGT/M6bXSvBvANxx9xz7SIaeXF0b1ZzlyX98Eam1oQ95uhL25W/qNr1WVdzur0H21mNTxcBV6YKHf2IBZsT5OaHoOx/KPJyE+rKfiScYFEVPC8OFLvaFxHoh57zyNQEm2wjR0fJi0WJXDF9iPxVLd9Z0QGDYaMQG2BppYPhNfxupwRT7hE/BDrK9ivZ09PEInYH30SMXmEWkh9cf8tSKt9Dyg8cD02PGY7SM9HQoLd6dhtbCY2hxS2d7y08lKWFD+h5EY1rE3Xpn/IiIV+UXOZXXQC9wIY1nwxc1hiH/R6P5W24a3rz8S4sNZe6ibu9F4PosVsXKeomyTI30M1zyquK8xtpZDh6YHImJewXIejpGSmoW1fDS2tpEtdGqlPmJK/23Eihy0ZSfwWd4tOAwOwNxnXFi7+SGa775GNdakl+CG53B8qNBx3vZ/meJp+5pY3eyaRGu189VrOMNnt0yuY3PGiIhgfRsL7TAW62cPYj2sFWRrEnnWXcYOLs88h0+Vdo6V4cvoIVbsnBKWx9CR+FBhs8U+OFZylnk9A/TX9uiOPmYjVy2w396+iNdFybiNehkrJnoIA6vJ/i5ssHkdy0OldcA2YY+RYUH4o5yfkNfL7OGGOx2tNQZxuT6DOF2ZnTCgp0uL89a0tM9YtU2W9Noc7oiMlPVLGkNjnxXW55vFah/tjCe8jMdI7vTLu53V6L5aTOm4NTtrrd+op32+55EgTGLqXXD3B1PvjiSI9oj8vr9fB4fg27jh0ppTojWR7YHyHa5th/E7D9VFGggzGL+T0iDy1BJ4SJi/D/YsoHhXp+79m71GYvPHoy07pw8RZFYIgiAeGe6gNL8UxfZ9ETfnKXIcCeIBIIatpd3Owgu7NfB8ygO9H6H+SKaFIAjiUaGuBJvTahE8YwwmtNYSFoIgVGAHl4CxTZdauHkh5s0IrJzhBUuLvh42KGxNEARBEARBqIZmHgmCIAiCIAjVkPNIEARBEARBqIacR4IgCIIgCEI15DwSBEEQBEEQqiHnkSAIgiAIglANOY8EQRAEQRCEash5JAiCIAiCIFRDzqNV+J+GWovAN1chJvOqlGYLLb2eIAiCIAii/UDOI0EQBEEQBKEach4JgiAIgiAI1ZDzSBAEQRAEQaiG/ra1thyb3v8eSRVaKYHh5oU/zgnBNN+uzLvmaxY3ISqjAYGRryMptLt0koTN1ztKx0Bk3ExE+3ZmF8jn6NMaCzMwLvFfGDprPObcKsBHW0tRhk4IDA/DoknOOLUtC3/OuIIGuCAicjwWhnrA6e45JM/fgZQngrBmihZp6/KQXqWFg8/T+HReMEa424vlQyMqCk9ga2ouUopuCykOPr6ImzISE4QyEwRBEARBmIb8BFNUleKTFf9ATl0z/eqWXq+jEbkb0xElOI6c28jdvQuT3t6C9wTHkVOL9JRMbCu7IxwJFB1EVGKu4DhyGor+iXfWnkC5cHgPNwr3Y0Fits5x5DQUFSIhcSe+VuZDEARBEARhBDmPGg/MXPo2cjfEiJ91MxE/uBPz2ypw/Lzonlmkpddbw74nZsdG4uCGuVgT5iqmuQ1A/Ae/098LNcgtqRV/E+AzlBOwY90CZMb5wZOlNBRfRHE9c2a1l7Hty0JxFnPKb5AplPkNLB/lws6qxrrsi8xlJQiCIAiCMA05j0II9xiSl3yGwDeTEDhnExJO62fkrNPS663gNQhT/HgouTM8+jgJSc7+fhjv2YW1nhP69esopBnihvCXBqCXxg5OgwbgBQeW1HgLNTeZ83ivAdeva5lT2g+vje0DIUdNNwQ93x/O7Gtd2TXmQhIEQRAEQZjmsXcetVdOYOkKwxCuLTT/+ru4eoNCxARBEARBPFw85s7jPdwou4gjjYBz2CTkKMPOqmjJ9bdx4kwVbgh5lCDnfq01tHNA166s2Rsv4Lu9l9j9GdprOLj/V9QxdRjo1xvurEy1eel4/s2/YdrGUvEcgiAIgiAIxmPuPNrBqWd39Gff6jJ2INjmsHNzrneA96Be7P9alGWkIfTNlQhdvLfZM582o3FH6DgPdv/byE39nt2fl/krxB6qBew9MD3InSlFA0rOVLD/szKWXWdOJUEQBEEQhMhjH7bWeA7Hh2/5IVB6i42Djx/+MsVTWP+nBtuvt4PLM8/h0/CezIHjdEJg2Fh8GT1E9T31dICLC3/Vjy3YwyN0AtZHj0SEm9z8GngGBGLNx5MR0ZNXRHZwWbpn12aUiyAIgiCIRxV6zyNBEARBEAShmsd+5pEgCIIgCIJQDzmPBEEQBEEQhGrIeSQIgiAIgiBUQ84jQRAEQRAEoRpyHgmCIAiCIAjVkPNIEARBEARBqIacR4IgCIIgCEI15DwSBEEQBEEQqiHnkSAIgiAIglANOY8EQRAEQRCEash5JAiCIAiCIFRDziNBEARBEAShGnIerXH3HJKjkhD45lakV2qlRBto6fVE2yC3S1QG8u9KaTZxC/kb17J2XYWYzKtSGkEQBEE8+pDziFpkJ3/OnADu4Ck/nyMhr1Y6hyAIgiAIguCQ84g7qLneKH0nCKL1uIOS7ZvYgxjNzhIEQTxKkPOowwmRcfOQuyFG+sxDfICL9BtBELZzF7W1t6TvBEEQxKOC3T2G9L39oL2O/F3Z+GhrKcrYoYPP0/h0XjBGuNuLv7cqV5G+5BskFDkw53Emon07S+kSfG3c/B1IaeiD+GWvIsLd0N/Wlh3AG4uPoFg65v64Z0AA/jTtGfjz8hpf3/28eAxfrFkVBv8O7BL5HF0aX0+3CVEZrlgU54/6fdn4hIfQ7Xti9jvjMNPlElI2ZiOl6DbgNgDxC8YiwrMLGgszMC7xXxg6azzm3CqQ5NcJgeFhWPT6QPSSi87lm3UE6zYXIleYdGXnhAVizrinxDIboct3SgjCLxxBQt4dRERPF5xrbWUptmzJEstnXHc0oqLwF3y+Lg/pVVrTZY2cjD/gGN5POcvKyq8Pxsez/eHtaCfcW1t5Drt+OoTEjCto4AlMBpEzRmHqmCfF+siyeyIIa6ZokSbdq4nO1Jcjff2P4lIEnsebT+DqV0eQrmwH4/LCBRFTx2DeBC+97HTIbdSAwMjXkRTqgpLtWzAjtVr6nWN0vYFeN62rDl2dnsPmWXbYvDKnifz054zA8qDrWMnkdzkgHDujB8PFqP/AzQt/nBOCab5d2V0Z9ZeR9UMW/izLVMaBy+I54GteLyj6g1xXRZpVuf9b6lfKWX3+gMauH3wNm97/HkkVijXARmU01Csmx8jxWBjqwXIgCIIgHjRNhsQHTyPKs/YiRh74GA1F/8Tvl+5Hfn1b+rk3kJKoWPu45BgqpF9sQ4uyvFzEbClGy1dMXsKSxF3SAMpovIL1y79C2OK9ouPIqTqLhFXHUKIbhxuRuzEdUTr53Ubu7gwszapmJePUI3/zdkSlyI4jh52TkY2o5YcV+RjD8k3dJ60DbURl7R2WVSlWL92pL59U9yiprbRlh7EwMVdyxBi8rBtPK+TK8kz5HjMEx5HDr8/B+z+cY63BEPJPR4LSyWEySElJx8K0cqk+EkUHEaW4F9eZd9aeQDk/1FYjPWm7fg0rz+ML5jgaeE73cKNwPxYoy8taMH3rTizYXCqWx2b49Xvw+S/8vndQkrZT0S68rgfx34euCUcmKfoHZizONpTfyoOG/aDoKGIl+TVcv8laV2pfRf9BVSk+SdyO1YX17KAW2et34D1jx7G5WJK7LfAyrvgHcupY3bTl+Hq5Uq+YHFNysI82nBEEQbQL2p/zqK1E5k/lTQe2qmKkFdRJB/eBf99EnYqxSuM5Gpt0oe4YHEwMQbA9G0SPX0BJs3bxGsJnclYvm4/cVRMR6cabi89YhWDzqgW6e6HiEk5VKwrLZyhjI3Fww1ysCXNlCbdx5FSl4ABpy/KxLKOGndMbMYt/J5Z5WRgm87wrTuHH0xbCjLp85yMptCsqDv2ClCrAM2wiMoX6S/eT2kp7ox6XeXlHhWHHugXI/CAEEV2NZtn4jFOcmOe2yL5w4E5VdgmK7jJna88Blj+fzXoWG1l9c9k5O6J94MnOKd5VgOMG8uUzrBPE+8T5sXNYGxRfRDF3Yn89g69PM2dbV+ffYXPkAOEcPdewL/U0c7hcERk3V5CLKHOgLKsAR7lTY5GO8J48U7xO+Mj1uYWsM9XMTZZDuC6YHP0Gqy8vgxfcxYvNwGcuJ7I66fWKO1k555S9Q643u+ei4ehVeQbrePu6+WGNIDNZHjX4dt951N6txvHjrBx8lnEtL+csxPvwjPsg/i+h0gysLZiTezdELJrD9IHPFdojMHIWu9dvxVlLjQdmLn1bkhP7rJuJ+MGdmFNfgePnWd3uNeD6dabPbj5YLuj+a4gPoDlHgiCI9kI7nHl8UBiteVw6Gt5qpMNDhJkZiJkrzlgGxWUjp9X239jDP+gpMfTq6ArPbrxAXfDCi0OEUKemRzd4mxrsvQZhih8P/znCb0RfOLMkcVaKFVdw6JjvMHwYJnl14WdD4z4AE/z59wacuczPMoMuX85tlF9iTgp39jLSECrM2H6BKO64SDOT9k9641XufB3KwKQ5G7AivwtmzH4avYTrJbr1w4tCqNIeHs8OxUvcj2m4jgtX70jOVme8FD4UPkJo1x69RgzBCw7yOUrv3g3hLw1AL40dnAYNEM9pvIWam8x5bFLnLvB+wU88R+buv1F2njdcDVISvxDaMnB+muC8yvlYg4fY0zd+g+cFWazCKykXFQ9BDvAZ4cWcq1psT/4KQbEZOOQyHAtDu0u/m8IFwwM9hZC3pudATBnOQ8jGbSTXWzxqrKxGAf9SdRJR81eycqxEaOJJ/cxkhx4YNozl01CIqN/ycm4UQ8tu3dHPycixV4V5uZuHLw84huQln4lynrMJCdy5l+nQE8Eh/CGkCLHvfoZp60vhGjGmyZIRgiAI4sHQ/qyxxh2h4zzYUGuE20BMHMrdoPaEFGI3CAGr5O4t1KpwSB5O7OHu0pE5vF6I/nAqlkeOQITbDaSn7saMP+9r4+UHbYB9Z7h2seJYaauxa+2PhiF2A5hz5fsi1n8wDvFTmBNZVYqk5K2YvbG5IXHbcejahT1OdICLq2HvcvDxw9IFQfA3WHt5F1dv3JG+ty7aKyewdIW0ZtckjvCfNQ2bo0MQE+CEsrwjiF28BclC2J0gCIJ40LTDR3l7eIwZi6SpfJZGRAjdvve80eDWHriJ4lPVzFnQz1rqwovWaKzG8fM32ZebKMk7izOtEOJWg8bJEb3Zvw3HjmNHKb8/G8wrz2JXPv/uikBvtTvMmRPiwmfCNIqwtfzhO9WdUZuXhY8yb+I/xjyH+MTpYmiyqhwFlQpP+9pF5JXxezNH/HAB9vCfevXBkB4dpfxvYc/uAhQJDmcjKo6ews/cOxPOUae++joX4Ocr/AZM5j+fFPORsXNA1648P0XYWv58EYEQZyu6V1+JY8XMGdKFg+WwtUwtsjfuRtqNXpgweSK+EfREi7IT5bhsdnlELY6dqBCXG1wpRuoxPhNruY3kuurD1vp67OebaerOIy2rBg4B4ciQ0xeFYgzfhGPAbZw4U8XufQ83ykqQU9YSR1KL6toG9n8Oz+8ijrBmcA6bhBxeBjlsLVN3BsmfHUftk09hZvQbkhxrcaCohuUhv5f1S3ImCYIgHhDtMw6k6Qr/iInYohvcXmijndZKjDbMqHo3XWf06cfXYumvtRq2lsOGuvDo3zHjs5O2z1w2E03/QZgurC+7jKQP/i6W+d0MbOdrCwf7IrR/R+lMa3SEV5Cv6ADpwtbyh/81He4N1+HHrWmYNIelyaFJe1c80UPRlnwTyGJeDjnMq8HA0V7w0sj5M6ev6DBmCSHYVZiUXAS+gzx43CB2jpSHFTT9vTCBx3UbLyIhbhXLh8lct0lHQjfjrQhbyx81m6ccXTGAO7O6cLBx2JpRU4ZPElMQxPKU9cThie7oabYefKPId4JsdXrVywujLLSRrn11YWu5HpI+S+VsyNuNMN1vf8O05FzkC069A7wH9WL/l9t1JUKVG7RsQp9Xcep3rN78xft1cOrZHf3Zr3UZOxDM728ctmYO5tUjuYh6l7eVLMdOGNzHGRp5zSbrc2cu838JgiCI+037dB7vKx3h2rW5jmlHeL80FkvDerIBksNfeTMaMQGOwpFpXBA8LRSzfaSZFv7amLcmYbmwscBGdLNlNqDpgYiYV7Cch06lJHljxndxw+FhQ3aanv5IiA9n9TU1E6aBy9CR+FAnGz6D7Iel8WMNZ/G8fRGvm2Xm5XgZKyZ6CIppMn9hg83rWB7aQ73yajwwPXa8gcxnx07DagOZ28MjdALWR49EhLAxyUY0vfHK/BcRqWzXuSwv3dSjM0ZEBOt/F3RlLNbPHsRqbQ53REbK5eEbpQKxJvZZy2txTbavks54wstY15ijqHtDgB1cnnkOn4YrdXosvoweIqydtQ2W19BnEKdrPycM6NkZGs/h+PAtPwRK3Y7rxV+meOrzd/bEjLn63+U+spDno3v4csKg3vxfgiAI4n7TPt/zSDzyiO95LESdTwh28F3CUjrBkN+haObdos3nHmrzduLl5LOA/E5Ilqp7V2mvkdj8scqNYgRBEMRjCw0TBPEYogxbBwkvudfA8ykP9CaLQBAEQViBhgqCeGywg0vA2KaheTcvxLwZgZUzvOgvuBAEQRBWobA1QRAEQRAEoRqaeSQIgiAIgiBUQ84jQRAEQRAEoRpyHgmCIAiCIAjVkPNIEARBEARBqIacR4IgCIIgCEI15DwSBEEQBEEQqiHnkSAIgiAIglANOY8EQRAEQRCEash5JAiCIAiCIFRDzqM17p5DchT/G8BbkV6plRKJRxFt2QHMfDMJz//1GMptaOrGwgyMZdeN3XgOjVKa7dxESWY6pgl/b/pLJBfWS+lE23IHJds3MZl/hoWZ1aAe3obItjQqA/l3pTQbkfta4JJjqJDSHnUejjrfQv7GtawfrWW265aU1rq0VA6Po+60JeQ8ohbZyZ8zpWdKZfD5HAl5tdI5zeEebhRmCs7A88mn2V2I+0c9M2Rf2taG2mrs+vo4iu37Im7OU/C4zz1DW3YMf045izLh6AbOXG4bA0wYor1yEslp1XAYHIh3x/SwYhAfxT5NdoqwRjPsKfHIQ84j7qDmevPniyyhvVGPy9J3a8izXvRU1BrcRW1Ng/RdDWwAPf1PpJzugsiF/xsRPe2l9PuFFpUll1DMuqNn2ERkbpiPpNDu0m+PAdpybHrvb2xwut+z+/U4vvs4crr6ISnG3/CBwUyZbOnTDwuPYp3aHnnGehViMq9KaQ+QNu1DttpT4nGAnEcdToiMm4fcDTHSZx7iA1yk35qDHVwCIrCf5bU/ejCs5UQGvDVxQUg0b0u1bWgHJ99QbNnwX4j2dZTSHgQa9O7jyjTxMeNeA65ffxABY0f4z/ov5C4Phb+jnZQmYbJMtvXph4NHsU73A+ZQ1baj6ECb9iFb7SnxOGB3jyF9bz9oryN/VzY+2loqhPEcfJ7Gp/OCMcK9LWaEriJ9yTdIKHJgzuNM5jx0ltIl+Dqd+TuQ0tAH8cteRYS7kb9tUFYNPAOC8fFsf3izwYivsRiXWIg6nxDsWDQcvUye+xScD23DpJRLUoYizmGT8NOsJ2FvJAu4eeGPc0Iwzber4PmL9/gXhs4ajzm3CqTzOiEwPAyLJjnj1LYs/DnjChqYAYiIHI+FoR5w4k+p73+PpAqFsTHKtwlNyh6AP017Bv68TfhvWUewbnMhcoVJXHb/sEDMGfeU+LuwHmYTojJcEBM9AGe/PYT0609i+f83FMfj0pDyxAgsD7qOlSlncTkgHDv5IGal3qi/jKwf5LopcPDFmlXPAV/z+zUgMPJ1cRZPbkeje+2IuIroxUdQLF3OHTiDujXhHm6U5WPFyhykV2mZbvoh3q8Wf01lpZTbjJ9mrfw6+LKJrxGbpxyI9LqmrTyHXT8dQqJcT/ueiJwxClPHPIleLCNd+08JQfiFI0jIu4OI6Ol43ym37fVCxflyH1DKxiBt3DUsfDcbucLFEkIbhsG/A7uF2vrbUk9h1mgLZqRWC7cTYb9PHYN5E7zQq/oYYsyUye+MWHZdn2Y/aStLsWVLFj4RQnr6fNx/PYA3bNItE1jUI7lfuWJRnD/q92WLZWAymv3OeMzzY+dUSnWxH4Dln76MEGfuJMv1rxH6x4reRxV18kOdJdlYk/nrA4VzBOrLkb7+RzHUydvtzSdw9asjSIf69jVG1h1Z/u5ltslYbdktl0seM5QRKz75MBO/dzpqe5tbsZ/6Outtl1DmsBD84VVfeN/IN6uvooyV+mlUHp1dDMKaKVqkrcuT7JpyzJX1TGFPhTXae/G+riwjEViTj6Q8O3EcHXytzWyJsu/psdKnWQbG1/eQjs3aJp5mUT4j4FqSh//+4iRrNy5XeexvsN4vxQLarP/tiXZYvEaUZ+1FjGwsGQ1F/8Tvl+5Hfn1b+rk3kJKoWPuoKnzMFDZtJ6J0ZdWiLO8g/vvQNeHIEFvOlalH/ubtimsYVaX4JHE7VhtsqGhE7sZ0xXm3kbt7Fya9vQXvyUrJnJT0lExsK7sjHDWB57viH8ipMyVj43Lwsudh2YFK9k36LUU2fBx2/4xsRC0/jBKFLQAuIyn5gND50HgLNTelexUdRay03q/h+k2Wo7V6M4dr/Q5F3Wygyb2M4XXLRczaEyY3zWiv5CM+IVusA6Oh6CT+L3Mc64QjGbXtZoX6Uqxemo4EZT0bryAlJR0L08pZSWVY+6fuk9YjNaKyVm7jttYLE9h6viVsqX9L68l/3/oTlmbZuGlGKONOaWDm8HwOIONXU/eRdGtLMTtLDWr16BKWJO7Sl4HJaP2ne7HrCuuQPXojUBg5LyHrlKSl2iocOsDtjisCvdXMJPE67cHnvyhLbUrmGXr5aauRnrRdv0aOt9sXzHFUdljV7WsLamRspeytWi5r5bHBfipsl3jOPrz/wzk2clmgiX6K5YkyHk+LDiIqMVdh1/6Jd8zYQC6/8sxdmG1QlgPMcbRi2+67LTGlt83EhHx+/+56zPiMO448hcs1B3/ec1mhHxb6JadN9P/+0f6cR20lMn8q1wtTpqoYaQWGQ3Sb8u+bqLPaenLowgWTo9/AwQ2/w+ZIL7iLPxph7twO6BU6FTlxvnDmp/Gnog0x2MufeirPYF1GDXsC82NPkQuQu2EBMuP84IkafLvvvKEx4k81sZEs37lYE+YqprkNQPwHv0PuupmIH9yJJdQgt4RdpfHAzKVvS+F59pF/b6zA8fNNJA9tWT6W8XLY90bMYpbfhvnYEe0jzro0+S0GB5eFYbIbU62KU/jxtGFohz+xrV42n503VTGLy5/8J2DHOlYW/kRprd53q3H8OMuXP12v5XWYhXgf/tzYB/F/CRWets1jeK8+nqOxSZYD//wtHBEsq4bSalQ0sVl3UHqwEDms7zv4PIuNvGyrXmsayrGl3Zg+hETPxY7IPuy7PXuyn8XO57K5i5I9B5AiPOVK95Lk7snMSvGuAhxX7ljVtb/Resk21AubzzeF+3AkrZ2ESAd+wGdcWX5r+IwJe9hqVv1V1BMd4T15pr7crH0yogfAgQ2C/7xUC63ZMvFjJSbKuO4NLB8l9GRojHTrYGIIgrluHb+AEjW7jW3QI12/WjURkbzvNVbjWNlNVgg3jBrdjZ1xC3sOXxSu0f5ail18hqeXF0b17yhcr8dYNvOxLbIvk80tZJ2pZm6DgiYyv40jpyoFZ0b76xl8ffo2O0e2C9zeDWBll7Gxfc3QbBmbLbuacnVHxKI57Dq+wETus78Vola2lscm+ynrs65NmMOSXYKi7ub0VYuKQ7+wukBaS83LJNW3yXgq20VZx1iZiy+i2NSEjW6MZtdM+Q3Ll13zQQgieJll7rstsUFvm0VT+Qgzm5GvCWvU5fYoPnkZlcJvImb7ZSvp/4NE0dqPO0ZrHpeOhrdV6TjAZ4QXa+xabE/+CkGxGTjkMhwLTW52sOVckcbKahTwL1UnETV/JQLfXInQxJPC016TWTOvQZgiTId3hkcfcdWcs78fxnt2Ya3shH79lINEIyoKjyF5yWcszyQEztmEBG7ozSCvx3QYPgyTvFh+zGD2ChiHFZM9gCa/sdu5D8AEf/69AWcuK0tpD/+gp0wsP3BD+EsDdNP0VuvdoQeGDevMDgoR9Vs+U7xRDCG5dUc/J6O1a00wvJcQfsk7gIRYvtic5fX2bqSbtTTyA0BnvBQ+FD58nZyjB8a/2F90/CVsajezmLgXl/uIIXiBDxIN13HhquLpRtf+RrShXth+vi00t/5q6smov4zs7WnSq5FWIiz5bNMHVquYKKOmG0LemoyZnux+PByZmYGYufweSQiKyxYePNSiXo8U/YrpY7DQ9+QZ6I7w8vfCQPat4fxVXNHqN2cNHO0FLxM2jofS0jd+g+cF2azCKykXTctGJ3NH+I3oK/QBuVxNbUYXeL/gJ7adgI3ta47myths2VtYLhvL01ROFuxnt74I4PrMyuPx7FC8xM2oxfLcRvkl5phyJzMjDaFCe36BKO6s6vRDRraLdnAaNECsqzI6pEReX2nfD6+N7cNGTnaN5xBMFMosc/9tiWq9bRYK+bh3Q2+e5NAfE1/gy2Ds4d7blfU0Yyz1y1bS/weIVffovqNxR+g4D+ZqGeE2EBOHKofo9gDfaPEi1n8wDvFTmGNYVYqk5K2YvbHURCjBlnOt49C1CzN7zUN75QSWrshGSlFrDfT3D7HeHeDiaqghfO3h0gVBTTc+WEQKvyQf0YUj2pqWtFtbY6te2HL+nZpbzE1vJwgh1W2ITVWEg1sdafmNQTiy9bBFjzT9vTCBPy1VlOLQr9fxr1N8d3A35qC4NR0A+Cur1v5oGEprt7StjG2nvZXHEszhcWnq7rQWbWlLTNICvW1Xtukhov05j/ypasxYJE3ls3QiwtTve8/b6BjcD2qRvXE30m70woTJE/GNEKJgT3knynG5iS+i8lxFuFzj5Cg+4ejCVvKUfEt2Rmpxo+wijjDjxjfl5PD8dGE908jlaDh2HDtKeTdjT4knf0bc5nPQNvmN3aHyLHbl8+9q11QZYrXedeeRllUDh4BwZMjpi0IxRngqtwVWj0vXmbHpjIjo2UI+cpjJNMxpdeEbqm5hz95icT1QfTl+3PerwZrH1mk3xb12F6BICB+x8h49hZ+5dezVB0N6tGb3tVUv+MYh9ec3lF5CCa9D/WX842gVTK88bEBNvRyracP636tFWSkbpPgmkr+J4SIx7GQKZZmMMVFG7XUc3ZyGzwqvofhUNbtaH9GwrFtNabX+rwtdX8OurF+QceyWmZA1o74Sx4qZbHRLQizJxjx6m1GAn4U1XjdR8vNJse0EWqN9b7ZYxk2xtVxaVNc2sP9zbC9PU9tqwX5eu4g8IeTJnNTDBdjDxdqkPKb6kEYRtpY/Ldg5beeArl3ZPRsvIPXwVVZ3bgtOIU0oM8c222D7+SZogd6qs02tjUo9qzuNBD6LHZvZxns+bKdF3azN0HSFf8REbImQju8L4oaZFOmIi0bYWfaCdGiOmjJ8kngGn0iHHIcnuqOnKbtn4Vz7J/phjH0h0iuOYMacI4JjtPP3gzB98HEknOZhq5PSFRypbBZC3ubRwKlnd/THWRRn7EBwhpQsYPpJVNNfLsdlJH3wdyRJ6c5hnmZ/4zgM9kWoMEDZtnhDn6eZeo9xxQDWsRrydiPszd3Sb8pdhFKSVeQOXI305PVIFxNFTK6blEKAqdUoPp2NV+ZkS+mGWC2/qnZj9wryRXBaNnKKDmPW/MNSOqcTgscNEkKOTZ5Rmo2temGn6nydXguhV6UsFGfJyxDyqpG0eDWSpJ3BwW1Vf3nwqziL2LdXSoki1soUJP0sYq6NmPPg3xl9+jkJ1xvaFYZOt+RdrHeFHfLGg7l1PVI796jQ232nLIas4Sj2LVTwJSGFUqKIKS0whzjbeRRJFReRELcKCVK6HnX6bRk1MrYVteVygPegXnDIYPqf+h2CUvkD6FTMsLE8quznaSmh6iwSFrOPdMj7rL4drfQhHrY26KPSGx2aNYSIDyNJTJ9yUjYhyKCiHHW2QY+t55ugGXqryja1Ger0rPH8BWTxh4Sqq7hw4167mkCz2j0ffTrCtWtzfWhnjIgIRqSP/ITUCYFhY7F+9iATswJWznX2xIwZ8oJyDfr3c4WTpgciYl7Bch7mFtKbi+wkiWg8h+PDt/wQKFWbh3z/MsXTYN2eAVI5lob1lJ7kuKMWiP9vXD/Ymywjf0XCRHwXN7x5f6nFar074wkvcV2bHr7bzZadrJyO8H5prKJevE1GIybA/KCs8XwWK2KfVsjuaaz+6wRpsbpEK7Wbpqc/EuLDWXkU2sRfXxH3OpaHWvtrKGpomV6oOt95IOa9o5SXH5bGhxnKS+gbAfoF9z26ow8zkq1Xf8N6QtMbr8x/Ud8X7Xsicu5IRKgokzFiGccq+jXX/VBMHeyiQrfqcaGMTzMYrz+TaLX+z7ISnBS5jGZC1hxVslGBxgPTY8djtiKf2bHTsFrYZCLS8va1vf+qQV257OAy9BnE6c5xwoCeatrcCNX2kz0wzIrA6nA5b37Oy1gx0UMqjw19qMUwuU98WVEWVs/wCfghVtr0yWgTW2KJ5uitKtukDl2UwAbU6Jno4PJ0Nev57y/t8z2PBGGWe6jN24mXk88C8jshWSr/Cz3C+9V6jcTmj9VsdiKIB4z8brtqD8R/NPkB/GUjgiCI5kHOI/GQoXcedcundPC1PS9j/SwvGM9LEkR7Q3zgOY5eka+10kwyQRDE/YHsFfGQwf+c2lisjx5p+F4xNy/EvBmBlTPIcSQeBmqRk34Svw4OxLtjyHEkCOLhgmYeCYIgCIIgCNXQAy9BEARBEAShGnIeCYIgCIIgCNWQ80gQBEEQBEGohpxHgiAIgiAIQjXkPBIEQRAEQRCqIeeRIAiCIAiCUA05jwRBEARBEIRqyHkkCIIgCIIgVEPOYwtpLMzA2DeTELjkGCqkNIK43zxoPWw//eAW8jeuReCba5FceEtKI2yF/+nEmaw9n//rMZRrpcT2xt1zSI5iOvfmVqRXtm4hZX0eu/EcGqW0NqUN69LatK1uyP13FWIyr0ppVpBlF5WB/LtSms00476POeQ8cuovI2vjN3ieD368UyzJRFbZTem3UiTH/g2Bc9ORXUd/jIewwqOiL3WnkTBX7A8Gn7ZyDttMbvVsUPiSlf1zJOTVSmmERbTV2PX1cRTb90XcnKfgQaMEIfMw6AaN2fcFMgusM6QnbcN7GVfQICU1FJ3EextPi4OktgFXr7fvJ0GROyjZvokNkvTk9EB5aPTFCjdvovK+TLlItJnc7qK2Ru7ZhIglW3EPN07/EymnuyBy4f9GRE97KZ0gHhLdeFRscDvnsXcetb+ewdenbwNuflizagFyN8zHjrhARHS1E09wHoz4L2KQ+0UEQpyltHYJGyRrKUz3wHlo9EUdzmGTkLOB1Uf+LBqOXtJvrUqbyc0FIdHzWNnnIT7ARUp73LFkK+zg5BuKLRv+C9G+jlIaQXAeEt14xGxwe8XuHkP63n7QXkf+rmx8tLUUZezQwedpfDovGCPcW/9Jh6/feGPxEWEaPv6jyU2fpvh6ivk7kNLQB/HLXkWEu6G/zdfGjEssRJ1PCHawgdVdzk/6nfvnngEB+NO0Z+Bvovzi9f/C0FnjMedWgVTnTggMD8Oi1weil3w7LpOsI1i3uRC5wowQOycsEHPGPcXy/TfSl3yDhCLlVJETIuNmInrwNWx6/3skVSiexNy88Mc5IZjm29X004OR/I3P11aWYsuWLHwihAFdEBE5HgtDPdgdDbFYt0nOOLUtC38WZnyVefBZkS2YkVot5cJhv08dg3kTvNCr/jQS3tmNdAzA8k9floyDfE0NAiNfR1Jod1bGc9j10yEkyjPK9j0ROWMUpo55UpCprmxTQhB+4QgS8u4gInq6CQejERWFJ7A1NRcpRewhg+Hg44u4KSMxwZT8muiLHW6UFWLDxmzd9TLcMftpVm+c3LgJURkQ28u3M/uFr79RpnWwLBNdffR6aOjgWZGpKSWoPIaYd7NRIJTxSVjreabub6gnlvtBE7l1Py8ePxGENVO0SFuXh/QqrQlbcBMlmXvxfspZUbfCRiKwJh9JeXaS7CDJskGnG2Kb/oLPpTz1+u2EUlvl1OT+IZg/6BKik8/jVak9ZdlAIUtTaTbJi9OsfuqAfWZsxe+djtpku6Att2JbZD12RfwHQUD6bmnpgFwW3t/lc1wQEz0AZ789hPTrT0p9+67lvqfTmd76awUd8cOHs4IwxrMLu0KN7t9jfTQfK1bm6K6P96vFX1OZVHXtY4sduIfavJ14OfksEBCOndGD2R0ZOnn1bjqWmBpnrLRvE6ycr7N55saaarHP59qbt60reh816Oe2jnccy3ou64OyvxpRX4709T+KusTt+ptP4OpXR9iY4Is1q8LgD3O25DlsnmWHzVI7w20A4heMRYSgJ6bua63N9fq9KM4f9fuyxTqxMs1+ZxxmulxCimz3lfey2m8eDtphORtRnrUXMXIHYDQU/RO/X7of+fWt7+dq3D0w2o2JofEiEuK+QMzGI8iW1zu2ClqU5eUiZksxeFcxTSNyN6YjSlfn28jdnYGlWdXsak498jdvR1SK7Dhy2DkZ2YhafhglCh1URVUpPlnxD+SYXA8i3Ushf+H8xO1YXVgvKP7Xy3dKHZ9Ti/SUHOwzu8jbVN12YdLbWxRLBXgemdhWdkc4agr7fesefP4Lu6dzX4wZzhysxkvIOlUn/qytwqED19gXVwR6MzNdX4rVS9ORoFiKgMYrSElJx8K0ckmmHFa21H3SgNaIylrj+7NBpXA/FiQaOn4NRYVISNyJr82WV0HdGaxI2GtwfeugkEmzUHd9XcYOBAvrHf+GackH1PcNoQ2UeiL2gyhb+3HRQUQl5orGnsFtwTtrT0gL9ZmtyNyF2YLjxuF94gBzHJmemkVuU32egn5/WYhSkypsSU6m7r8X/5V8CpJmqsdmeTW3n9qyo0CyXTp5q8CkbbmEhMXfK9ac8rLsxgZeTh2XkcT0S2iTxluouXnXhr6nuJYhLDtaedCCnhm2qfZKPuITsg2u/7/McdS3oa12wA4uQwbiJeYLNRwrRr4kC+2vpdjFHYZefTCkh7Wh10r7NkHt+RbGmh69ESg8iVqwrVaxMt611C4Iy8y263WJ2/UvmOOoZmVK0T8wY7G+nVF1Fglm9cSWNr+EJYm79HViZVq//CuELVbYfX6vVcfMj9Um+037pv05j9pKZP5Urh/0ZaqKkVZgs0m2jqMXfv/eeMz26cQOxMEndvGXiNl+ETfEM2xC4zkamxRhvoOJIQjmRuT4BZRYstv8aSU2Egc3zMWaMFeWcBtHTlUKZdCyp+JlGTXsHPaEvfh3Yr7LwjCZO70Vp/DjaUdELJrDruNzf/bsyWkWO+e34iyWxgMzl76tK0/uupmIH8zq2liB4+dN9LjKM1jH76UL4y9AZpwfPFGDb/edR+29Blzn60ncfLB82XzkrnoN8QHGc45GNKkbgz+JfcDqIpeH5Z9bwjtfR3hPnqkv74b52BbZFw7sKS/rTDUzfc7wf7aPcLzn8EXBQOmNshdG9QdK9hxACjMQDj7PYqO8FCHah9VBi+JdBTiubAdd2eY3fcrVXsY25lQIT+dTfoNMQX5vYPkobkSrsS77IiuPZRrPX0AWO0kX/l0WgkD+A3ty36xiRk/Emkys0dLrOdzIH0Esc4StL0LXouLQL6wNAM+wiaLc5La3uR/zmZEJ2LFO1kPWl4ovopgbfJ2tkNuHnfNBCCJ4vzCHiTYV+lI3fo2NcmrO/U3SDHk1u5/2MGsrjG1X7t/CEcFtV2k1Kkw1uWrbwmeXArGGl0PR3384esVApnxWeTU/Z8NURPSotKHv8ZnM18S2lOwtH4xzzvEyWGvTOyg9WIgclpnOXgiyUjhKzbEDTR5y2X3yS1HMZDFwtBe8rKmItfaVTtNhy/nmxhqNG0aN7saOzdnWjvxqA2wb71puF3TLzHRj4e+wOXKAYBesw2ecJzJbYkpPjLCxzXW6u2oiIoX+z3We2XjWFrp7VVzCqWomS1vH5HaKrVbukUTjPhBvLYpihj8cMYLRYE5kapaFmTAL8NBBZgZipJ2qQXHZgmGyitcgTPHjU9aO8BvRl7lIrANev8meJ1mWN+rZszVT0OHDMMmLT7HzMg/ABH/+vQFnLpt6EpXhU+/HkLzkM6E8gXM2IYF3PjM0VlajgH+pOomo+SvZNSsRmniSdSKpPB16IjiEd/YixL77GaatL4VrxJgm4XwDdHXrDI8+oqPp7O+H8XwKX+OEfv0MjRIPOafrdr+vwispFxUPE8ZP9beNjLK8nqszXgofCh9HHnqxR68RQ/CCA/vacB0XrrIOLKMrmwnkAdi+H14b20cMy2u6Iej5/kL71JVdY2bEMvZP9MMYVlbdDB4PC7G7eXp2FfJQi2WZWMfm692HI0k2bnwgWvwsArkBVM5KmOU2yi+xgYw7nBlpCBXu+QWi+ODG9LHpDK8l3BD+0gD00tjBadAAsQ2FmSnmzTRpH3aO5xBMFPqFGUy0qcbdF3/6P6PgzZTAJjk15/4msV1ebdJPeQg+7wAS+E5VXoa3dyPdou1Sa1s06D3ERwxLarrjhbH9mPNm3H/s4R/0lH45gk19zwXDn+oltmXPgZjCnTaFXbTcpibshaMHxr8o3kegWXbA6CFXN4PXjdltN9P2RoHV9uW/KbDpfLNjTUd4+XthID8+fxVXtFpUllyy7PDaNN613C40HQu7wPsFP9EuWIXpSaCnsFTBlJ4YYFObK3TX0RWewoNoF7zw4hB4M33S9OgG7w7imSK2jcntFWs6fP/RuCN0nIdgXAxwG4iJQ3XduQ3ghn8wZkZPxfIArlTyTJgtSCF3g/Dyg0V75QSWrjCcem8uDl27MHPjCP9Z07A5OoQ52k7ibNTiLUg2GUppBvxVEGt/NAw5G+P8BCaOYQOj4Miwp7mT3PioM8r3HY0DundVloo9yYa9iI9ffVI0SDru4uoNM8ZTjUws0dLred/w+g+Eewneo43OnzH2cHdpOoPRLmixnCxzp+YWc89sxXZ5Na+fSiH45CP6sJ4VWtO2tBlt3KbmYQ+5Q4fiP9004kNuWTlyLczg2YLYvuqx5XxNfy9M4N5VRSkO/Xod/zrFd+Obs62tOd61Y7vQyjwU/UYF7c95ZErkMWYskqZ66aaihSnh956HvzCL1JpoUZG5HTEbjyFffi9J/b9xnj9xNEuZb6L4VDUzUnwBOt/hqZgebwEaJ0f0Zv82HDuOHaXi8KOtPItd+fy78VoULaprG9j/OXwh+EUcYVXThU11YSPTyPfShz/k2acY7OcLv+vOIPmz46h98inmaL8hhYBqcaCoRrpnC6mvxLFi1qkcfLFmLb+vHGZS4ohhIT7sCZk91f94CP9TyiqoM8od4OLCnX/22+4CFAnrWdiT3tFT+JmPHqrWG0nYOaArd/waL+C7vZfEZQzaazi4/1fUsa4z0K833IUTzaFFbUEBvq3qhIjo2ZIc30LSrKHCE6kht3HiTBW7B2+zEuQoZ71VycQCNl/P+8X/ICGzXFq6weR38gR2czmrWvskt4FGEZ6SP62461nRPqmHr7JSc9mdQprQL8xgok21lcX4bNnPyK+1UU423r+h9BJKuD7WX8Y/jlZB38K2y6t1+qnSVrA2vnSd2a7OOl21bLtssS1aXD5VJtZdexU/773A7mOl/9jU92px7ESF2JZXipF6jM8kyuufrbWpwl7sLRbXdtaX48d9/D4SzbUDjv0wPqSbcN03mwuQz881N4NnhNX2Fc7SY+v5ZtGFrq9hV9YvyOCyNOvw2jretdwu6MfCAvx8hdujmyj5+aRo261iQU+MaW6bW0Wrot/wDVfpeJ6vM99YKt67HdJCt6aN0HSFf8REbImQjtuUO8LGE/4xgHVCcabTWmBSSWf06ecE5FUjJfFzpEipAgbT1rah6T8I0wcfR8Lpy0j64O9IktI5DoN9ESp0bHt4D+oFh4yzKE79DkGpfBCYjkU9u6M/WBoPm2aI14iYdoz19+Lhj5NSKoevj3odSc/ew9UjuYg6lCulczpjcB9n1qVaAUdXDODOXUUhon5bKCWKKEssPiEfRVLJFRwxMMod4RXki+C0bOQUHcas+YeF80U6IXjcIOE8VY6uNAu+JuUiclO/R2iqlM6x74vpQe5W6qyBkyT/9OT1SJdSDXd7OujaTQjlmGojlTIxS7Ouv4H0lO/YRzoUYEZ/1HCEWZ05UbRBkzqZfmtBs5AGuqTUauSkbEKQQVnNYK5NmXMxylY5qby/uHShEOlCSFHZp+R8bZdXy/qpXuf0tmIqZggDe7WRrjJM2i47nW5bty18vWw2ZrCPnh7SbJaZheCq+t4FKYFvwDHSVZ3DY61NpVAta8Pi09l4ZY6yjBLNtgNy3kdwRJhlkutsHavta7Q+29bzzaOQx75TVtZo2jreqdFz6dAMOrtfwTe4rkKClK4OS3pipIeq2pw7r7aiHxPM95sGlJypYP9n/absuvAQYxilah+o0eNHGA16jXoOy6foZzmFgX1KODZ/+GIzZjo7wvulsVga1lN6suUhytGICWjhO7E0PRAR80rTck6diO/ihktv+edhkmcQp3t6c8KAnnwR/HB8+JafuF6NwV9D8Zcpnvr1PMaYvJcCZ0/MmKvPjy++jnxrEhY2ezZJfhqV0PTGK/NfRKSwgYnB8587EhHG0z+6J2SG/ZN4a2xvnTJrevojIV5evyrBX4UQ9zqWh/awQent4RE6Aeuj2f11myCYA8UX/39s4rVOpnDsiqFNNlAod3uydnvmOXwartSZsfgyeoi+jdTKxBw2X8/6xZgwrIn0NWznyAisnOdr5pU1hphsg1aH9beJL2O1UnbhE/BDrK95/ZbbVNEnBN34w0gM62irnIzvz/tkGOJfNDL1zgMx752nDfrg0vgwRCrytVleLeqnpmyFi822S71tscfIsCD8Ub6f0BdfxnRPYydTiQ19zycIa2Jl+UrnxD4rrGFVo/saz2exQnc9r8fTWP3XCYr2ab4d0IWBGQ4Bz2CSxTorsNa+xth6vgVER1SSl8XlQLaPdy22CxoPTI+VN7gyWHvOjp2G1cIGMGu4Mxsmt6GRnjShFWy/jDyLKWG930gPd/x+Nq6Nv5+0z/c8EoRVzLxLrV1Ri+zkrxGbB8U7JOX3pl3DwCm/wVeTPcwYZuLhRH73m/K9nY8rKt7Z98hjygYQ9xUr72ommgdJkXhIqUP+4UvCGq2Xnu3bDh1HJbeEUKCws+7N1dILi10w2seVOiBBPMrUXUQWX1tn3wdjhrTXOSSCsB0au4iHk4fCKLsgZPYko1ASD32MwP+Lm4zf059/I4hHmHuoPVWMPY2Aw/CB8Kc/lUc8QlDYmiAIgiAIglANzTwSBEEQBEEQqiHnkSAIgiAIglANOY8EQRAEQRCEash5JAiCIAiCIFRDziNBEARBEAShGnIeCYIgCIIgCNWQ80gQBEEQBEGohpxHgiAIgiAIQjXkPD6GNBZmYOybSRi78RwapTSCw/8W71oEvrkKMZlXpbT2j9yegUuOoUJKa5/wv+u9icn3MyzMrIZWSiWag6yra5FceEtKI5orF7KJjzutYfvv4UbZMSTE/o3l8zdM21iKG9IvzUMu0+dIyKuV0toP5DwKf7j+c9ZA/O8OKz/ts8EI4mFFe+UkktOq4TA4EO+O6fHYGB9t2QHM5DblvQMoIY/5PsMG9MJMTGPyfz75NLP2BNFGaC9j26ocpFfxTq5FWdl11Im/tJBGVNbekb63H8h5xB3UXKdnTYJoW+pxfPdx5HT1Q1KMPzzI8hD3Ce2NelyWvhNEm1F9GbkVzHF088OaVQuQu2g4ekk/PYqQCdfhhMi4ecjdECN95iE+wEX6jSCIluEI/1n/hdzlofB3tJPSHg80nqOxiduUpaPhTRb3PmMHl4AI7Gfy3x89GGTRiTanWzd4PAY2zu4eQ/reftCW45evPkXsm4nIYocekX/Dtr/+Ds96dBJ/b1WuIn3JN0gocmDO40xE+3aW0iXunkPy/B1IeSIIa6ZokbYuT5iWdvB5Gp/OC8YId3vpREO0laXYsiULnwihbxdETB2DeRO84P7rAbyx+AiKxdMYGngGBOBP056Bv5BXIyoKf8Hn0n3gNgDxC8YiwrOLcLa28hx2/XQIiRlX0MAT7HsicsYoTB3zJHqZHJj4Oox8rFgpTqc7+Pgh3q8Wf00tA8Im4adZT4Lf1bC8xmUyhK8PGpf4LwydNR5zbhXgo62lKEMnBIaHYdHrA/Xl0F5HftYRrNtciFxhcpedExaIOeOeMpkvD+9ZlI2uLZ7D5ll22CzVyVBGfJ3IJkRluCAmegDOfnsI6defxPJPX0aIY42V8sjXNiBwSgjCLxwRly5wGc8dgzdH9YYT081N73+PJP6EKePmhT/OCcE0366sxBbu76w0KNba2db2KESdTwh2SE+7tlzPsXy+XCdXLIrzR/2+bPE8JpfZ74zHPL//hcrMHzAp5RIcAsKxUx6kdbLqjfhlE9Dvp69F2Ua+jqRQF5Rs34IZqdX8TAl9PzGlyxb1bpIzTm3Lwp+FfsHyiRyPhaEe7JGQwfVwV7Z0PsOgvVTqs0EeXD7B+Hi2P7wdG63Xo/IYYt7NRq6DL9asCoN/B5ZmpUxNuYmSzL14P+WsWLawkQisyUdSnp3CbhnplBV5NrFRsszkfgZFeZukmddfnTwjJ+MPOCaVWSkzqR9YlIE1nZPlZF0uTfuHWptog62tO42Ed3YjHQMUfZ2v8eW6USPpfHfxXAG5flC0n3EaVMrAGOO2UcqV/3YCW1NzkVJ0WzjbwccXcVNGYoJF+zUWLts2m0iX7KoVXbZ93GqNOtgiN/ma5tine6jN24mXk8+KdROw17W5dVtsrq6dcVwuk9F4pKuH1fGo7WjLvJvJbVzctgQTJceRU57yNgJnJOOXOoWAWp0bSElUrH003nxQdBBRibli4zIaiv6Jd9aeQLmpItWXYvXSnZKycGqRvvUAMn41tW5Bi7K8XMRsKRbW42jLDmOh4j6oOouEjafFsgj5piNB7oCcxitISUnHwrRykxsQtFfyEZ+QrSj3SfxfZiQN1mI0Ka9Ypqil+5Ffb+7ZohG5G9MRJRsM1m65uzOwNEveCFGP/M3bEZUiO2ocdk5GNqKWH1a59stQNjqK/oEZi/V1EmS08qBRWS8jKfmAeE7jLdTcrLOhPKxuqfv0a165jD/7CRsK68VjY6pK8cmKfyCnztL9DeVovZ1tbQ8Ftl6v+vxLWJK4S38ek8v6T/di1xUt3L37YCBLajhWjHxJDtpfS7GLG7VefTCkhxpTw/vJHnz+i1wOU5jSu12Y9PYWvKfrFyyflExsK+P9TdJD3fkM3l6J27HaoD0t6TNzAtJ2Kn7j8jmI/z50TThqirV6qC2TTCPKM3dhtuAgcbjeHmAOkvJcvrZvPxYodUoox04s2Gxi4T4bdL5ebmSjUnKwr9KgI5jFov4KMHmmfI8ZujJzmeXg/R/OSWVRKwNzOsc7sRq5NEW9TbTB1jr3xZjhzAFsvISsU1JO2iocOsB1xBWB3i2Z87QkA2NM6AGX65eFKNXKv2XrnC5OQ1EhEhJ34muhv8iYs19m7KqldrRVlq1WB1vkpgY19skIq7bVUl3FQ1bwJuORxXrw65uMR61P+3MetWfx05ofUC4d6sjahC2H7+MO2H/fhKGvymciJmDHugXIjPODJ0tpKL6I4iaDMRto9hxAClMEB59nsZGvfVj3BpaPchZ+1YWwpM/BxBAEsweQhuMXUHKXVV9Yn8OeTkaFiff6IAQRXaWnWON8N8zHjmgfVhYtincV4Di73pA7KD1YiBymY7prVr1mFI7XouLQLyxfwDNsIjKFcs3FmjBXpoTFSCuwsOSXPwHFRuKgfD4z3kdOVQqDg5Y92S/LqGHn9EbM4t+JdV0WhsluTOUqTuHH0013QlqTjR7+BDiRyUd/Du8wOef0z30cPju8etl8ltdUTKg/YUN5+NNhCDYLbTcT8YP5jHcNfjh6BY0aD8xc+raujLrfGytw/Lz5+0e4G3Y18+3cgvYQsPV6287X1WnVRERy2TVW41jZTWj6e2ECfxzXDZ5M9/JLUczqOHC0F7wMq8/oCO/JM0UZCp/52BbZFw64hawz1cxcWqCJ3jH4zNcHrF0V7ZVbwoxt5Rms4+0ur0PaIPffGny77zwbDhSY1ee7qK3l+uGCydFvsN9/h82RXnAXLmpGPWwpE0dbicyfytnAy2zQlN+wNpL0hctfxzXsSz3NBnBXRMbNFcsitBFQllWAo8YDyb0GXL/ODJybD5YL7cntgjBPqwrz+quAz4DEcXnKMmEDZ3YJinhftkEG5nROnVyMUWMTm2NrneH/bB+h3fccviiUX//w5IVR/TuKpzUTszIwhm/aYI6HMAsryESyc93YNSZ+E8cmXvdqrMu+aKCv5uyXQTrr4ZbbsRmybIs6WJNbE2zp19LSiGUhCOSHfIabnZ8U2tW6bbVUVwVm62HDeNTaGJbwscZozWOT9UluCH9pAHpp7OA0aABecGBJJmaUoBtoOuOl8KHw4SEaTTeEvDUZMz2ZAeGhmswMxMwVZziD4rIFQyZj/6Q3XuUG/1AGJs3ZgBX5XTBj9tPoZSpf2KPXiCFiWRqu48JVA2+XYeIaRw+Mf7E/M3Uyt1F+iXV+btgz0hAqzLx+gShuEFgXsbjLy2sQpgghAEf4jegr5Nlw/Sb486a8SN1h+DBM8hJDsRr3AZjgz7834MxlE7MDVmSjxwXDAz2F0IGm50BM4U/8TfK0h3/QU7plBbaVR4PeQzzF8JqmO14Y248ZDaCu7BozTzzEcAzJSz4Tyhg4ZxMSTuufgPUY3t8Y8+3cgvYQsPV6W85X1InpUbAgO+kcjRtGje7Gjm/j9KU6llstTp3keXRjMnYzaWh4KCt94zd4XrjnKryScpG1hAp0etcZHn1Eh8fZ3w/jechf44R+/fQDdWNlNQr4l6qTiJq/kt1nJUITTzJjrddVHWb12QE+I7zYYFeL7clfISg2A4dchmOhFIa0tR42lYkjO3r2/fDa2D7MUjEb5DkEEwX5S9z9N8rO885Sg5TEL1ierCzz04RB26Sd6tATwSF8ECtC7LufYdr6UrhGjGnykGMO8/qroFs/vCiEzuzh8exQvMS7gmSn1MvAgs6pkUsT1NjE5tha5kAMGSjUUZx9v23l4ckWLMjAmCYy4XbOF3/6P6Pgbdf0Nz42BT0v1l20bzLm7JdhuvV2bIYs26IO1uRmgmbbJx0qbKuluup0xlI91I5HrU+LVLpN0AzAuKhX4SEd6hgzE9OeVa4ZeRhpRHnWXsQYhE6NcPRC9IdTsTxyBHuCvoH01N2Y8ed96sKVrY493F1a9sSsHhWyaQfcvXICS1cYhkyaRbPauaXtYev1tpzfEV7+XhjIDGXxgVKU1l7BsVLWkOZmXbTV2LX2R8NQ1n3GoWsX5iaqgTklvi9i/QfjED+FOZFVpUhK3orZ/D1urVwP9WWyAfvOcO3CB20lfAPTNGyODkFMgBPK8o4gdvEWJCtDxndvobbJw7FEG9qpNpHB/cD5CUwcwxxyYfb9ktWHJ5G7uHpDnTPzsPHQtiOnze1T64yt2tYaj5pB+3Me0Ql9X1mEtA1xGCOl8A0zuZuj8YxzOyxuEzrAxUVc/LxndwGKuDHVXsfRzWn4rPAaik9VM2XUz3Lqwq4CfOFtFj7KvIn/GPMc4hOni1PQVeUoqLzXNF/+1HH0FH7m2m1yXZmiLHuLxfWZ9eX4cd+vivU98jkaxdS6/Gn+jnONkyN6s38bjh3HjlIxTKCtPItd+fy7qTVAN63IRkktjp2oEMPjV4qReow/2VpeV2RbebS4fKoMJULbXcXPey+wcmkw0K8XHMsu4gjziZzDJiGHy0gXJrUFNe3c3PawtT1br/11oeuKEqRvL8CeRguzLvWVOFbMDB7fRLKW30sOC7Uucrvrw2r6+qnffVuL7I27kXajFyZMnohvBL3UouxEOS7X2V4Pm8tk54CuXZkQGy8g9fBVpp33cKPsFNIE3ZWQz1GGreXPFxFGm7UYdWeQ/Nlx1D75FGZGvyGVuRYHimpY/hKN1Th+nt/jJkryzuKMLrxoSX8VT37XLiJPCBGyB8PDXB/YV8lOtUq7qJFLE2yxibbYWo4jhoX4sAcodt2Ph/A/lh6edNzGiTNVzJbxspcgx2DNXjNQyOS7vZdEG1lZjM+W/Yx8bdPfoL2Gg/t53bl96y0txVCP9XZshizvcx1M0ir2SYVttVTXJksjjNEynWmN8ah5mByaHzgaDzzzX0uxj33uH+KGmRTpiItG2C31gnSomo7wCvJFcFo2cooOY9b8w1I6c4r8O6NPPycgr9roXgy+o1GgDj9uTcP2rdIhx94VT/ToYiZfTicEjxtkcl2ZMBuUWo3i09l4ZU62lK5EUV4+tZ4hJQv0QfyyV1WHspRo+g/C9MHHkXD6MpI++DuSpHSOw2BfhDYxqGpkI8MX93/HPtIhR2ekTfc4deWRr2WOQV42ZrCPnh6Y4O+O/4Xu6I+zKM7YgWADWdn6FKminZvVHra2p5rzpUNrSKHrJKZvmzP4RgEuMzOzLo6uGMAHjYpCRP22UEoUsVWSltC3Ow+rnZRSOfrdkKqoKcMniWfwiXTIcXiiO3o6214Pm8ukkGtOyiYEGXQOCY07Qsd5YE3KRSFsbXCKYhe+nnu4eiQXUYdypWNOZwzu4wxNB2cMG8YGvTwxBG6bnWJDijCiM/gmmsXsIx2yQuoeJqzLQMWclRq5NMFGm6ja1oqID1BHkVRyBUcU9W2KA7wH9YJDxlkxpNkiW6JAoQe5qd8jNFVKZ07QKHO/cez7YnqQOyuxwvlXgRpdtlmW97kOJmkV+6TGtlqoq/TVPBo49Wyt8ch2zHSBx4mOcO3auj60pqc/EuLHItJHfgLgGzxCMXWwC7xfGoulYT2lJ5hOCAwbjZgA2VDawWXoSHyo+53pkI8flrK8+MyBmG84O1/xXC4sSn8dy0NN/8UOjeezWBH7NAKlKgoLb/86AZGKRyiT+bYUTQ9ExLyC5TzMJyXJG12+ixtu4iXRHa3IRok7IiNHSgvj2VNdQCDWxD5r+R16NpWnDxbFjcNsuf0EGb+M6Z4dmTyH48O3/BTy9MNfpngq1kupoRntbAO2Xt967S8ZS7k7WZp10fTGK/Nf1PcRe/46JNamCr1sHvLTvoTJdrcVZ4yICFb0Z66bY7F+9iC4NKceNpeJ9Y2JL2N1uKJvhE/AD7G+Cr2zh0foBKyPlvuFFZw9MWOuXo+Fcr81CQsFHXBB8LRQvf5Lvy0PE1aYMSzrrw5vX8RPlevI+9rLWDHRQ7RTrdIuauTSlGbbRCu2VkC39pdh/yTeGtvbzLlMhs88h0+VZWc69WX0EBttiTGSHihslFDuP4zEsA6mdESynx9PRkRP+QIbUNGOtsvyPtfBFK1kn6zbVkt1lY4t0DrjUfNon+95JAhTyO+aa2j+jChB3G907y/lITD5vYmPMKbeO/r4oH/nH5TvPCWIRwwafQmCINoE/uLhtQiSXnzvMKwfvB9xx5GoQ/7hS2jgu4uf7UuOI/HIQs4jQRBEm6AIobv5YMm0geRMPOrUXUTWsVuAfR+MGXI/gocE8WCgsDVBEARBEAShGpp5JAiCIAiCIFRDziNBEARBEAShGnIe///27j0oquuOA/iXdRUVGVQegoYgIoVYa/CVVaijQTQNQSuJcSJjiGaMtDjuJBnCH52hTodJOhJmkmIBSakajGQ0tkZZTapEUYpKiY8iGBkWEaPhrRgesoprz7l7F1al9KKtqeH7mdlh53Luuefeyx9fzu+eXSIiIiLSjOGRiIiIiDRjeCQiIiIizRgeiYiIiEgzhkciIiIi0ozhkYiIiIg0Y3jsjfwO5bg0GOLycea2uq1Ptq8hM6zMgPHQVXXb/8otVO3ZLo61CW8faoZV3UpERET0KDA8PmasDWVIz2uGc7AB78xz13YDO6qRnvBHGFabUNjGLxQiIiKiB8fw+FjpQOmBUhSNnIw0Ywh8tN49qwVXWzhHSURERA+P4fGxMhwhK15DcWo4QoY7qds0GBGMpGwjirOjMGdEP/YjIiIiuofTHUF9P3B11MK05Uskl7QCei/ErnwSV7d9DRMmISsjAiGDRBtrC87sL8R7u6pRI/fx8Mdbr8/BskkjRQKXzzxuR1y+BYbYV5AWPlq26CGfoYzfi5wnf47cFU7I3VgEU5NV9DEBSevmI8pvmGhk78MVxrUTcGHHCZhaxiP1wxdE4LuN+nNnsWt3MXIqbypdOgdOQmL0DETK47edR/KbB8R4xyHpvV8iymsQWkv24YX0i/CNfgnboizIlMe3jEXS+y8iavQldTyzkRVtRd7mEmU8zoFP48M10+BWVYI/ZJehuEsHv5lh+P2qEASoYdXaeBH7/3YCKfkNsMgN8nrFzMLSeeMxptd/RbrE2E/iI/UYgCuils7Dmkh/0f6OOs4LQPAc7EicCh9dKwrTP0VCiQuMv1uG5SjBq+u/htnWmSDHNBO/WTYdIZ56h2v7IOdSjZ07C/CBvO/96jcM02QbIiKiAYgzj9ZmmNL22IKj1NWAnGwRHJVkZNeBM7l7EGcPjlJTNT5I2YPMcx3qBg0q/46Y9YVqiBKaLiB543Gc6XDM73VISz9ma9PVies3rGg/dxTrUgq7g6NkqTyHZPvxRwQgZpG7aF+LnAPfot1ah727LsKiH49fzff+9ze58jjiUoq7x2Op/Cd+/c4WxGySYUtusaKmpAi/PVhnW5jTUY3MDSYk24OjJK9Xjglv59X2snjnjjr2nmMArTDt2od1udVohxNcp09HnEidlvOl+Ov5DlhrzmJTSSecZ07HYr/B6j6O5JiKYdxpFj05eKBz2acGR8nWb9yGo3ffj176ffPPZ1F7/8kSERENCAM+PFq/rcCn50Uo03vDuP4NFG99A7mxE+Cn/l7RWIHN+dcBj8nIylgn2qzDocTJos117Dh86e4Q0yc567YIezcbcTxlDsLk5JUIoUUX70qqyuxW5vvx4jhLEeXZgVOHzSK0DoEh+iUc2mpE8eZXkTrLVbS0H38wAhaEItYDqMkvQEpmAbLq9QiLmY2wPsvUos+FkWI89vORxBhjXxbHicfnsePgLEKVuawOjXKV98FjyBEhyjnwGXyiXId47F0bKPYTbfaXo/S+lenXcHj3eTF2N8QmrhbtxdgzFtnGWVCOU3Lxjs4bS16bpFzLnM1f4N1PSmHWj0PiyxPFSMSv/UKxXe6nvuzXzVJ6GVV3Ha8/52JF/YmT4lwAv4hFtmu6dTWyItzE/TAjr7xN2dvm/n4t5isw3xX4iYiIBg6Gx/YO1ImfzlOnYLG/LB8PQ8DcyZjrrPxa0dXYjHL5pqkMcfEbYVi5EeEpZcospKXlBrTPPbpiqsFPKe/qvCYieupQsc2CijrHHvQImf2znrLo7WaUlnaKNx5YGOoDF7lNNwphzwdhonjbffzhvngx0kcEpFZ8WdIIi8dPEDtr9H+4waLPBRPEeJzg4jkK3nKTsy8WzZXH0cPT203EUrvbaG2V4xiKBQt/ikCl9KvHmGlP2a6VpQWXr94zHXf7e9RcktN+IhimZIvrlgZDfJ4SQG2zqjKAiWMHP43Y4CHi+l6BqbILfvOm4Vkv9fzl4wKH8mFcLfYV+89OLESRMpN4r/6cy03Ufif+GZCzjfl5CJfjWpmNOPkPArrQ2HpLaWXj0G/QBNu5do+diIho4Bnw4fFhOY8chuHq+x/WTdR/19ZTTm65hsttmj6k8oehHwq3YeqsaKcImU32RGhF3eUWfK/k0C7UFnwFY845tfT8KIig6dpbuZyIiIikAR8edS7DlVkqy+lyHGmQCeUGqo6U4YhDJdnepqds3VNGPbo2WCmvatOK02fr0S7eWRvM2H1azuS5wRDQRw9Ozhg5Ut6mJhw4VqvsC+s1FH1RoSwiGeE3Cu5yU0MFcgquA2OCYHzWTeQu9flH2f6/YhBcXeVMaScOHihHpVK27UL9qW9s12rMWDzlfs+fU/fYHcrW9lf3ym8REE+cwo4mYGLEVMR49Dz/KO+F+ZtmEYhdxP5rlP26y/0PxX4uOoeytf21Bkkztd5RubjnIxhWfoz0/jz7SkRE9BhjePT1R6SsI3ddQXJihggCf0JMzoWehTGCzjcIy5Wyqr1sbSuh9v8bZVphyvlMKZN2l1/H+GOWbx8zXTpPhD8ny9E3Ubz7L7YS6+vbkHCiFdCPw1sLn4Be9Fv0WYnobyiiloZi+fNTRMCSJdlj+LzGsQT7MAbDf/Yk2/OGlf/ACuU6ZGBxeqXyPGbYc0Hwv/evqXvsDmVr++vd06iXbdrMyM69Ylvcs2QWlimld9H+4zOosg7F2Cdkob5d7C9DWl9l6/6wn4tj2dr+2gVTo8bVMN2PFLSjok7+JCIi+vEb8OEROh8sT/gFVgWKcCjpvbAqYRkyI5SnC2107ogyLkFqtL+6EONBeSI2dgaiPORllx8NY0BWwjMI6PMu6OETHokta+37SXLfGUhNikSUl75nhXLwTKye7gqd12Sslauv0YwsU5WIlg+me8ZVpfMKQXLSQhgdZ+bkRxYlvoLU8N6+7aa3sTu6haqvTsLUJcKnsrhnMHzmhSqrr1FfhtyTnQhYMB8bIrxEoJSGwBARKo7f/wcFNJ1Lfw1yx5QpcgbTBUHe8icREdGPHz/n8VGwf2ag/XMWPftMi0RERET/t5hiiIiIiEgzhkciIiIi0oxlayIiIiLSjDOPRERERKQZwyMRERERacbwSERERESaMTwSERERkWYMj0RERESkGcMjEREREWnG8EhEREREmjE8EhEREZFGwL8Ah+Zz//1zcaMAAAAASUVORK5CYII=;" vertex="1" parent="1">
          <mxGeometry x="210" y="-150" width="655" height="329" as="geometry" />
        </mxCell>
      </root>
    </mxGraphModel>
  </diagram>
</mxfile>
